<svg width="48" height="48" viewBox="0 0 48 48" fill="none" xmlns="http://www.w3.org/2000/svg">
<path fill-rule="evenodd" clip-rule="evenodd" d="M44 24C44 25.1046 43.1046 26 42 26H39.6586C38.835 28.3304 36.6124 30 34 30C31.3876 30 29.165 28.3304 28.3414 26H6C4.89544 26 4 25.1046 4 24C4 22.8954 4.89542 22 6 22H28.3414C29.165 19.6696 31.3876 18 34 18C36.6124 18 38.835 19.6696 39.6586 22H42C43.1046 22 44 22.8954 44 24Z" fill="#00644F"/>
<path fill-rule="evenodd" clip-rule="evenodd" d="M44 38C44 39.1046 43.1046 40 42 40H19.6586C18.8349 42.3304 16.6124 44 14 44C11.3876 44 9.16508 42.3304 8.34142 40H6C4.89544 40 4 39.1046 4 38C4 36.8954 4.89544 36 6 36H8.34142C9.16508 33.6696 11.3876 32 14 32C16.6124 32 18.8349 33.6696 19.6586 36H42C43.1046 36 44 36.8954 44 38Z" fill="#00644F"/>
<path fill-rule="evenodd" clip-rule="evenodd" d="M44 10C44 11.1046 43.1046 12 42 12H19.6586C18.8349 14.3304 16.6124 16 14 16C11.3876 16 9.16508 14.3304 8.34142 12H6C4.89544 12 4 11.1046 4 10C4 8.89542 4.89544 8 6 8H8.34142C9.16508 5.66962 11.3876 4 14 4C16.6124 4 18.8349 5.66962 19.6586 8H42C43.1046 8 44 8.89544 44 10Z" fill="#00644F"/>
</svg>
