<svg width="48" height="48" viewBox="0 0 48 48" fill="none" xmlns="http://www.w3.org/2000/svg">
<path d="M39.2 12.8H31.2V8.00005C31.2 6.23285 29.7672 4.80005 28 4.80005H20C18.2328 4.80005 16.8 6.23285 16.8 8.00005V12.8H8.8C6.1496 12.8 4 14.9496 4 17.6V38.4001C4 41.0504 6.1496 43.2001 8.8 43.2001H39.2C41.8504 43.2001 44 41.0504 44 38.4001V17.6C44 14.9496 41.8504 12.8 39.2 12.8ZM20 8.00005H28V12.8H20V8.00005ZM24 26.4C27.0872 26.4 29.6 28.5528 29.6 31.2C29.6 33.3704 27.9104 35.2065 25.6 35.7977V37.6H22.4V35.7977C20.0896 35.2065 18.4 33.3704 18.4 31.2H21.6C21.6 32.052 22.7216 32.8 24 32.8C25.2784 32.8 26.4 32.052 26.4 31.2C26.4 30.348 25.2784 29.6 24 29.6C20.9128 29.6 18.4 27.4472 18.4 24.8C18.4 22.6296 20.0896 20.7936 22.4 20.2024V18.4H25.6V20.2024C27.9104 20.7936 29.6 22.6296 29.6 24.8H26.4C26.4 23.948 25.2784 23.2 24 23.2C22.7216 23.2 21.6 23.948 21.6 24.8C21.6 25.6521 22.7216 26.4 24 26.4Z" fill="#00513F"/>
</svg>
