<svg width="200" height="200" viewBox="0 0 200 200" fill="none" xmlns="http://www.w3.org/2000/svg">
<g clip-path="url(#clip0_181_3445)">
<path d="M52.5335 103.332C52.802 103.403 52.9106 104.097 52.775 104.875C52.6393 105.654 52.3085 106.231 52.04 106.161C51.7715 106.09 51.6629 105.396 51.7986 104.617C51.9342 103.839 52.265 103.261 52.5335 103.332Z" fill="#F50000"/>
<path d="M42.8451 110.608C43.0654 110.202 43.4155 110.163 43.6226 110.522C43.8297 110.88 43.7201 111.335 43.3788 111.533C43.0374 111.73 42.6877 111.769 42.6012 111.619C42.5148 111.469 42.6247 111.015 42.8451 110.608Z" fill="#F50000"/>
<path d="M46.738 98.1697C47.3325 96.5808 49.247 97.9963 48.934 99.7932C48.8144 100.478 48.3811 101.029 47.9718 101.018C46.8581 100.988 46.2284 99.5329 46.738 98.1697Z" fill="#F50000"/>
<path d="M60.2973 90.6723C60.5177 90.2657 60.8677 90.2271 61.0748 90.5858C61.2819 90.9444 61.1723 91.3996 60.831 91.5967C60.4896 91.7938 60.1399 91.833 60.0535 91.6832C59.967 91.5335 60.0769 91.0789 60.2973 90.6723Z" fill="#F50000"/>
<path d="M36.8957 101.886C37.2358 100.635 38.3961 100.78 38.3537 102.068C38.337 102.566 37.9386 102.964 37.4679 102.952C36.8939 102.936 36.7056 102.586 36.8957 101.886Z" fill="#F50000"/>
<path d="M46.3668 90.9094C46.7082 90.7124 47.1476 90.8284 47.3432 91.1673C47.5389 91.5063 47.4197 91.9448 47.0784 92.1419C46.7371 92.339 46.2977 92.2229 46.102 91.884C45.9063 91.545 46.0255 91.1065 46.3668 90.9094Z" fill="#F50000"/>
<path d="M28.6297 97.4525C28.8501 97.0459 29.2802 97.146 29.5851 97.6741C29.89 98.2022 29.8605 98.7961 29.5192 98.9931C29.1778 99.1902 28.7481 99.0908 28.5638 98.7715C28.3795 98.4523 28.4093 97.8591 28.6297 97.4525Z" fill="#F50000"/>
<path d="M47.691 86.0367C48.0323 85.8396 48.4717 85.9557 48.6674 86.2946C48.8631 86.6335 48.7439 87.0721 48.4026 87.2691C48.0612 87.4662 47.6218 87.3502 47.4262 87.0112C47.2305 86.6723 47.3497 86.2337 47.691 86.0367Z" fill="#F50000"/>
<path d="M44.497 86.2374C44.8383 86.0404 45.2777 86.1564 45.4734 86.4954C45.669 86.8343 45.5499 87.2728 45.2085 87.4699C44.8672 87.667 44.4278 87.5509 44.2321 87.212C44.0364 86.8731 44.1556 86.4345 44.497 86.2374Z" fill="#F50000"/>
<path d="M52.3678 79.6827C52.8057 79.6944 53.152 80.0606 53.1375 80.497C53.123 80.9335 52.7534 81.2808 52.3155 81.269C51.8776 81.2573 51.5313 80.8911 51.5458 80.4547C51.5602 80.0182 51.9299 79.6709 52.3678 79.6827Z" fill="#F50000"/>
<path d="M36.0188 88.6674C36.38 88.4588 36.6636 88.6648 36.6483 89.1256C36.6329 89.5863 36.4976 90.0342 36.3468 90.1213C36.196 90.2084 35.913 90.002 35.7173 89.6631C35.5217 89.3241 35.6576 88.8759 36.0188 88.6674Z" fill="#F50000"/>
<path d="M33.0697 84.0022C33.4432 83.5828 34.0095 83.8384 34.4681 84.6328C34.9267 85.4271 34.8649 86.0453 34.3149 86.1591C33.8065 86.2645 33.1773 85.9803 32.9165 85.5286C32.6558 85.0769 32.7242 84.3899 33.0697 84.0022Z" fill="#F50000"/>
<path d="M34.9261 77.5059C35.5357 77.4079 36.0225 77.665 36.0086 78.0781C35.9797 78.9567 35.2813 79.4511 34.3986 79.2179C33.3587 78.9433 33.7436 77.6965 34.9261 77.5059Z" fill="#F50000"/>
<path d="M31.7798 72.0936C32.1044 71.9062 32.6415 71.9937 32.974 72.2873C33.3065 72.581 33.1138 73.0899 32.5447 73.4185C31.9756 73.7471 31.4385 73.6595 31.3505 73.2247C31.2625 72.7899 31.4552 72.281 31.7798 72.0936Z" fill="#F50000"/>
<path d="M25.9381 70.6596C26.0889 70.5725 26.5444 70.6793 26.9511 70.8964C27.3578 71.1135 27.3944 71.4621 27.0332 71.6706C26.672 71.8792 26.2159 71.7728 26.0202 71.4339C25.8245 71.0949 25.7873 70.7467 25.9381 70.6596Z" fill="#F50000"/>
<path d="M13.9452 70.6079C14.1694 70.195 14.6021 70.2895 14.907 70.8176C15.5321 71.9003 15.2515 72.2743 14.2262 71.7266C13.8473 71.5247 13.7214 71.0214 13.9452 70.6079Z" fill="#F50000"/>
<path d="M19.1333 66.2174C19.0477 65.6119 19.2791 65.6731 19.7234 66.3738C20.1251 67.0079 20.1886 67.456 19.8644 67.3704C19.5402 67.2848 19.2108 66.7659 19.1333 66.2174Z" fill="#F50000"/>
<path d="M9.86006 63.5093C10.2014 63.3122 10.7208 63.5669 11.0144 64.0753C11.3079 64.5837 11.2688 65.1609 10.9274 65.358C10.5861 65.5551 10.0666 65.3003 9.77312 64.7919C9.4796 64.2836 9.51872 63.7063 9.86006 63.5093Z" fill="#F50000"/>
<path d="M16.2565 10.1147C16.7904 9.13023 18.3794 9.18648 18.346 10.1893C18.332 10.618 18.074 11.1113 17.773 11.2851C16.9041 11.7867 15.8079 10.9414 16.2565 10.1147Z" fill="#F50000"/>
<path d="M119.781 99.3762C120.2 99.3361 120.62 99.2959 121.038 99.2572C121.032 99.2796 121.025 99.3118 121.017 99.3417C120.623 100.265 120.592 100.248 119.781 99.3762ZM121.056 99.1961C121.085 99.094 121.074 99.129 121.056 99.1961V99.1961ZM131.422 112.911C132.033 112.457 132.656 111.99 133.329 111.485C132.933 110.657 132.557 109.882 132.194 109.121C132.481 108.955 132.646 108.86 132.698 108.83C132.532 107.165 132.372 105.544 132.224 103.998C130.166 103.078 129.198 101.19 127.914 99.6023C126.936 99.6831 126.163 99.4214 125.387 98.8291C124.53 98.1706 123.431 97.7966 122.314 97.2338C122.286 96.7443 122.996 95.6991 121.628 95.6382C121.111 96.4776 120.577 97.2665 120.131 98.0956C119.924 98.4811 119.893 98.9447 119.778 99.3775C119.459 99.9728 119.136 100.567 118.812 101.165C119.417 101.113 120.021 101.061 120.589 101.011C121.439 100.284 122.278 99.5654 123.189 98.7867C123.763 99.4285 124.274 99.9968 124.768 100.543C122.814 104.478 122.814 104.478 122.979 105.786C126.471 106.665 126.471 106.666 127.295 108.191C126.92 108.385 126.547 108.582 126.107 108.81C127.245 109.551 128.963 112.668 129.395 114.669C128.532 115.215 127.653 115.776 126.769 116.334C127.02 116.41 127.272 116.483 127.524 116.559C127.075 117.071 126.622 117.582 126.13 118.145C128.218 118.349 128.578 116.355 129.961 115.698C130.441 115.703 130.99 115.705 131.654 115.707C131.578 114.793 131.506 113.922 131.422 112.911Z" fill="#F50000"/>
<path d="M125.002 148.642C124.94 147.979 124.901 147.581 124.844 146.96C125.378 147.107 125.738 147.202 126.675 147.458C125.859 148.037 125.523 148.272 125.002 148.642ZM128.695 148.416C128.661 148.505 128.648 148.547 128.695 148.416V148.416ZM128.684 148.479C128.692 148.455 128.7 148.419 128.716 148.36C128.704 148.411 128.693 148.452 128.684 148.479ZM127.235 144.423C126.989 144.89 126.73 145.388 126.166 146.468C125.915 145.397 125.589 144.838 125.711 144.357C125.899 143.617 125.433 143.424 125.032 143.112C126.083 142.869 127.133 142.626 128.216 142.373C127.591 141.29 127.023 140.306 126.368 139.173C125.965 139.257 125.444 139.362 124.924 139.469L124.92 139.478C124.412 140.736 124.578 141.933 125.008 143.107C124.117 143.621 123.231 144.133 122.055 144.812C123.017 145.318 123.684 145.67 124.821 146.272C123.724 146.478 123.182 146.579 122.646 146.68C122.561 147.402 122.479 148.104 122.387 148.865C123.856 149.515 123.292 151.14 124.097 152.446C124.694 152.234 125.354 152.001 126.016 151.765L126.014 151.762C126.218 151.401 126.421 151.041 126.639 150.656C127.858 151.526 129.102 151.2 130.337 151.179C130.204 149.065 130.204 149.065 128.717 148.356C128.102 148.129 127.49 147.901 126.851 147.666C128.012 145.678 128.159 144.641 127.235 144.423Z" fill="#F50000"/>
<path d="M55.8222 138.739C56.0633 138.65 56.3053 138.558 56.7777 138.38C56.7192 138.774 56.6809 139.04 56.6046 139.577C56.2271 139.2 56.0153 138.997 55.807 138.789C55.3155 139.167 54.8274 139.541 54.0807 140.114C53.7506 138.503 53.4784 137.155 53.2053 135.811C52.6671 135.658 52.0693 135.487 51.4688 135.313C51.1511 135.796 50.8979 136.18 50.5545 136.7C51.1735 137.484 51.7584 138.231 52.5166 139.19C52.7673 140.038 52.1375 141.505 53.4809 142.297C53.8373 141.788 54.1823 141.291 54.6127 140.676C55.1883 141.254 55.6067 141.68 56.0391 142.113C57.057 141.759 57.9805 141.438 58.9055 141.119C58.8892 140.976 58.8768 140.835 58.862 140.695C58.3176 140.677 57.7746 140.662 57.0102 140.639C57.4797 139.966 57.889 139.385 58.3742 138.691C58.3071 137.851 58.2339 136.913 58.1501 135.865C57.3006 136.004 56.6818 136.102 55.8914 136.23C55.8662 137.155 55.8437 137.949 55.8222 138.739Z" fill="#F50000"/>
<path d="M111.514 150.907C111.352 151.003 111.184 151.097 111.016 151.182C110.81 151.032 110.606 150.881 110.315 150.67C110.457 150.493 110.573 150.284 110.748 150.148C110.879 150.047 111.083 150.046 111.359 149.975C111.411 150.289 111.461 150.599 111.514 150.907ZM112.191 147.917C112.176 147.837 112.163 147.76 112.148 147.68C112.416 147.655 112.684 147.633 112.95 147.609C113.425 146.648 113.9 145.691 114.374 144.738C112.782 144.924 111.356 145.093 109.952 145.259C108.358 146.9 110.53 148.137 110.321 149.626C109.461 149.904 108.524 148.897 107.967 150.353C108.559 150.824 109.202 151.338 109.809 151.818C110.334 151.553 110.672 151.38 111.011 151.207C111.404 151.485 111.586 151.403 111.516 150.906C112.794 150.474 111.708 149.442 112.276 148.728C113.028 148.97 114.027 148.637 114.488 149.648C114.565 149.819 115.218 149.71 115.687 149.733C115.164 148.828 114.772 148.147 114.485 147.652C113.816 147.64 113.38 147.636 112.945 147.628C112.695 147.724 112.444 147.822 112.191 147.917Z" fill="#F50000"/>
<path d="M87.3439 128.01C86.556 128.882 86.0322 129.466 85.5573 129.993C84.8964 129.789 84.4482 129.65 83.7114 129.424C84.0435 130.794 84.3009 131.866 84.5708 132.98C85.1642 133.159 85.6805 133.313 86.1906 133.468C86.9191 132.428 87.5064 131.589 88.2229 130.572C87.9271 129.706 87.6863 129.016 87.3439 128.01Z" fill="#F50000"/>
<path d="M153.949 47.6486C154.016 47.3888 153.985 47.5143 153.949 47.6486V47.6486ZM151.885 46.4949C152.669 46.9335 153.308 47.2949 153.946 47.6537C154.116 47.8399 154.288 48.0284 154.539 48.3005C155.046 47.7361 155.506 47.227 156.021 46.6548C155.358 46.4051 154.893 46.231 154.258 45.9908C154.658 45.5954 154.917 45.3478 155.171 45.0906C155.423 44.8311 155.668 44.5696 155.966 44.2585C155.687 43.9268 155.475 43.6793 155.289 43.4549C151.987 44.9029 151.987 44.9029 151.885 46.4949Z" fill="#F50000"/>
<path d="M140.545 77.199C139.834 77.0121 139.205 76.8475 138.391 76.6347C137.744 77.8429 137.206 78.8549 136.521 80.1387C137.301 79.9444 137.664 79.8549 138.21 79.7169C138.659 80.2006 139.007 80.5749 139.393 80.9936C140.1 80.3356 140.745 79.7387 141.638 78.9071C140.859 78.9715 140.501 79.0007 140.112 79.033C140.251 78.4468 140.371 77.9415 140.545 77.199Z" fill="#F50000"/>
<path d="M123.871 153.35C123.014 153.412 122.166 153.478 121.136 153.555C121.796 155.013 119.587 156.64 121.651 158.349C121.609 157.666 121.59 157.411 121.545 156.707C122.413 156.392 123.387 156.093 124.312 155.676C124.574 155.559 124.695 155.11 124.889 154.798C124.372 154.48 123.974 154.236 123.612 154.012C123.737 153.69 123.803 153.526 123.871 153.35Z" fill="#F50000"/>
<path d="M133.85 84.7594C133.17 85.4808 132.529 86.1608 131.889 86.8431L131.886 86.8482C132.257 87.4527 132.616 88.064 133.01 88.6488C133.059 88.722 133.306 88.6649 133.552 88.6678C133.637 87.955 133.718 87.2571 133.789 86.6443C134.955 85.9268 136.634 84.5305 136.808 83.962C135.712 84.2566 134.751 84.5177 133.85 84.7594Z" fill="#F50000"/>
<path d="M112.665 82.6874C112.136 84.0737 111.654 85.3385 110.941 87.2008C112.43 86.341 113.376 85.9056 114.186 85.2956C115.097 84.6087 114.932 84.0021 113.762 83.1668C113.778 83.1132 113.795 83.0498 113.825 82.9439C113.655 83.4277 113.701 83.2964 113.747 83.1627C113.432 83.0253 113.119 82.8866 112.665 82.6874Z" fill="#F50000"/>
<path d="M88.529 153.43C88.1157 154.026 87.7631 154.536 87.4576 154.981C87.7759 155.445 88.0067 155.78 88.2413 156.115C90.1627 155.411 90.313 153.772 90.9097 152.204C89.7764 152.315 88.903 152.402 87.9856 152.489C88.2087 152.875 88.3989 153.205 88.529 153.43Z" fill="#F50000"/>
<path d="M114.62 156.843C113.655 157.681 113.138 156.621 112.27 156.881C112.141 157.262 111.995 157.685 111.802 158.248C112.846 158.287 113.701 158.321 114.434 158.35C114.3 159.234 114.242 159.606 114.136 160.309C114.956 159.901 115.438 159.664 115.694 159.535C115.796 158.857 115.896 158.395 115.922 157.934C115.978 157.023 115.145 156.391 114.62 156.843Z" fill="#F50000"/>
<path d="M156.349 76.7838C157.112 76.5929 157.894 76.3972 158.392 76.2742C158.767 75.1062 159.045 74.2438 159.324 73.3876C155.507 74.7281 155.445 74.799 156.349 76.7838Z" fill="#F50000"/>
<path d="M136.661 150.949C136.071 150.493 135.551 150.088 135.074 149.718C133.701 150.502 133.701 150.502 132.944 151.574C133.436 151.865 133.925 152.158 134.418 152.452C134.986 152.44 135.557 152.427 136.22 152.411C136.081 152.055 135.994 151.83 135.908 151.604C135.95 151.606 135.984 151.611 136.053 151.616C135.929 151.57 135.87 151.544 135.832 151.532C135.857 151.542 135.888 151.553 135.918 151.567C136.126 151.393 136.336 151.218 136.661 150.949Z" fill="#F50000"/>
<path d="M110.436 158.847C109.493 160.059 108.562 161.005 109.011 162.98C109.285 161.561 110.808 162.512 110.774 161.178C110.53 161.034 110.289 160.889 110.044 160.743C110.185 160.573 110.327 160.406 110.585 160.096C110.672 160.583 110.723 160.879 110.776 161.177C111.426 160.976 112.319 161.358 112.648 160.365C112.278 160.149 111.891 159.952 111.541 159.711C111.174 159.461 110.842 159.169 110.436 158.847Z" fill="#F50000"/>
<path d="M163.465 30.3362C163.891 31.0736 164.317 31.8109 164.716 32.5032C166.15 32.232 166.15 32.232 166.888 31.1226C166.309 30.7836 165.734 30.4457 165.159 30.1077C164.591 30.1857 164.022 30.2613 163.465 30.3362Z" fill="#F50000"/>
<path d="M110.882 135.065C111.196 136.752 111.457 138.156 111.805 140.004C112.259 138.936 112.601 138.135 112.96 137.298C112.385 136.559 112.324 135.468 110.882 135.065Z" fill="#F50000"/>
<path d="M121.51 140.843C122.361 140.052 123.167 139.321 123.944 138.566C124.024 138.487 123.937 138.254 123.922 138.06C123.238 138.056 122.547 138.057 121.656 138.059C121.708 138.927 120.617 139.807 121.51 140.843Z" fill="#F50000"/>
<path d="M106.654 85.9524C106.864 84.7915 107.077 83.6316 107.33 82.2366C105.748 83.2133 105.582 83.834 106.654 85.9524Z" fill="#F50000"/>
<path d="M104.47 151.633C103.968 152.64 103.387 153.81 102.805 154.981C102.927 155.04 103.048 155.096 103.169 155.153C103.807 154.234 104.441 153.312 105.087 152.38C104.767 151.995 104.533 151.71 104.47 151.633Z" fill="#F50000"/>
<path d="M104.47 151.633C104.449 151.607 104.445 151.606 104.47 151.633V151.633Z" fill="#F50000"/>
<path d="M141.195 40.0667C142.393 39.6817 142.469 39.1544 141.843 38.4727C141.508 38.574 141.201 38.6627 140.822 38.7777C140.908 38.2313 140.979 37.7826 141.072 37.1979C139.708 38.0518 139.708 38.0518 141.195 40.0667Z" fill="#F50000"/>
<path d="M118.132 138.952C118.753 139.055 119.26 139.138 119.967 139.252C119.945 138.578 119.933 138.089 119.911 137.305C119.075 137.387 118.577 137.434 118.016 137.489C118.063 138.094 118.096 138.505 118.132 138.952Z" fill="#F50000"/>
<path d="M60.9949 150.006C62.9716 149.424 63.0333 149.259 61.8684 147.672C61.0273 148.315 60.9189 149.102 60.9949 150.006Z" fill="#F50000"/>
<path d="M152.381 141.121C152.256 140.861 152.121 140.572 151.835 139.969C151.111 140.472 150.656 140.789 150.159 141.136C150.96 141.773 151.598 142.258 152.381 141.121Z" fill="#F50000"/>
<path d="M109.947 88.7771C109.407 87.6507 108.423 87.422 107.278 86.7395C107.406 87.63 107.479 88.1096 107.547 88.592L107.556 88.5964C108.408 87.6238 108.94 89.2319 109.947 88.7771Z" fill="#F50000"/>
<path d="M132.902 50.5577C133.55 50.7372 134.194 50.918 135.008 51.1468C134.95 50.425 134.916 50.024 134.859 49.3267C134.069 49.6184 133.486 49.8381 132.906 50.0528C132.903 50.222 132.903 50.3898 132.902 50.5577Z" fill="#F50000"/>
<path d="M137.373 91.1874C137.461 91.3012 137.547 91.4126 137.633 91.5277C138.707 90.9073 139.779 90.2882 140.854 89.6678C140.437 89.5167 140.022 89.3642 139.57 89.2016C138.793 89.9028 138.083 90.544 137.373 91.1874Z" fill="#F50000"/>
<path d="M119.581 83.0753C118.859 82.9394 118.43 82.855 117.952 82.7674C118.064 83.7175 118.154 84.544 118.258 85.4358C119.454 84.9003 119.011 83.8504 119.581 83.0753Z" fill="#F50000"/>
<path d="M102.077 143.345C102.107 144.083 102.125 144.654 102.148 145.226C102.315 145.265 102.486 145.306 102.653 145.345C102.967 144.712 103.277 144.074 103.677 143.259C103.104 143.29 102.68 143.313 102.077 143.345Z" fill="#F50000"/>
<path d="M115.653 145.419C116.283 144.958 116.617 144.711 117.137 144.332C116.564 143.857 116.152 143.513 115.363 142.853C115.485 143.936 115.552 144.526 115.653 145.419Z" fill="#F50000"/>
<path d="M59.4163 144.937C60.1514 145.214 60.5955 145.384 61.0442 145.552C61.1735 145.433 61.3061 145.309 61.4354 145.19C61.0401 144.451 60.6448 143.712 60.2472 142.974C60.5942 142.569 60.4981 142.419 59.9817 142.514C60.0693 142.666 60.1596 142.823 60.2472 142.974C59.9725 143.62 59.7016 144.266 59.4163 144.937Z" fill="#F50000"/>
<path d="M95.0508 143.791C95.3962 144.318 95.6227 144.662 96.1086 145.405C96.5643 144.551 96.8246 144.066 97.299 143.179C96.2582 143.46 95.6904 143.614 95.0508 143.791Z" fill="#F50000"/>
<path d="M166.462 38.7432C166.416 39.3767 166.625 39.9293 167.513 39.7201C167.561 39.0731 167.602 38.5025 167.643 37.9318C167.834 38.1155 168.027 38.2979 168.217 38.4793C168.291 38.3734 168.365 38.2674 168.44 38.1639C168.181 38.0637 167.924 37.9658 167.667 37.8703C166.743 37.4618 166.511 38.0986 166.462 38.7432Z" fill="#F50000"/>
<path d="M99.2712 157.909C99.373 157.916 99.5143 157.677 99.6404 157.547C99.4406 157.201 99.2394 156.852 98.7261 155.963C98.4257 156.841 98.2833 157.259 98.1409 157.676C98.5136 157.761 98.8884 157.877 99.2712 157.909Z" fill="#F50000"/>
<path d="M128.176 125.52C128.546 126.619 128.73 127.167 129.05 128.123C129.538 127.342 129.758 126.993 130.036 126.549C129.508 126.256 129.113 126.039 128.176 125.52Z" fill="#F50000"/>
<path d="M126.249 94.4077C126.249 94.4077 126.249 94.4077 126.248 94.4053C126.248 94.4053 126.25 94.4077 126.247 94.409L126.249 94.4077Z" fill="#F50000"/>
<path d="M126.247 94.409C125.528 94.9098 124.807 95.4083 123.999 95.9631C126.178 96.0581 126.211 96.0328 126.247 94.409Z" fill="#F50000"/>
<path d="M69.7797 179.823C70.2626 179.424 70.7432 179.027 71.2933 178.57C70.8374 178.188 70.5823 177.975 70.3287 177.764C70.0073 178.345 69.6872 178.928 69.3635 179.51C69.5018 179.614 69.6414 179.72 69.7797 179.823Z" fill="#F50000"/>
<path d="M70.3287 177.764C70.3287 177.764 70.3287 177.764 70.3273 177.762C70.3273 177.762 70.3273 177.762 70.3287 177.764Z" fill="#F50000"/>
<path d="M131.533 139.118C131.737 139.007 131.94 138.897 132.143 138.786C132.226 138.01 131.973 137.458 130.522 137.11C130.995 138.054 131.263 138.585 131.533 139.118Z" fill="#F50000"/>
<path d="M105.93 156.799C106.012 156.958 106.093 157.116 106.178 157.273C106.821 157.037 107.467 156.8 108.112 156.563C108.053 156.253 107.996 155.948 107.897 155.429C107.129 155.965 106.529 156.384 105.93 156.799Z" fill="#F50000"/>
<path d="M196.317 98.4533C196.253 99.2776 195.968 100.14 197.224 99.9908C197.696 99.0451 197.507 98.5501 196.317 98.4533Z" fill="#F50000"/>
<path d="M60.5533 154.133C61.3045 154.101 61.7511 154.08 62.5851 154.044C62.1406 153.416 61.9146 153.101 61.5489 152.581C61.1818 153.154 60.9562 153.508 60.5533 154.133Z" fill="#F50000"/>
<path d="M160.457 44.9573C160.488 44.9616 160.548 44.826 160.593 44.7523C159.801 44.0557 159.801 44.0557 158.338 44.6446C159.196 44.7752 159.822 44.875 160.457 44.9573Z" fill="#F50000"/>
<path d="M128.1 88.0288C128.272 88.0813 128.444 88.1301 128.615 88.1804C128.973 87.7237 129.332 87.267 129.813 86.6538C129.266 86.5494 128.955 86.4889 128.546 86.412C128.374 87.0294 128.238 87.5284 128.1 88.0288Z" fill="#F50000"/>
<path d="M145.463 45.2178C146.051 45.5673 146.498 45.8343 147.191 46.2463C147.192 44.8647 146.88 44.4062 145.463 45.2178Z" fill="#F50000"/>
<path d="M59.9071 172.404C59.3432 172.777 58.9408 173.038 57.9617 173.682C59.2693 173.841 60.0477 173.932 60.8265 174.029C61.1264 174.239 61.424 174.449 61.7216 174.66C61.8365 174.565 61.949 174.472 62.0616 174.378C61.9036 174.018 61.7446 173.661 61.549 173.208C61.2009 173.595 61.0158 173.797 60.831 174.005C60.5353 173.493 60.2397 172.98 59.9071 172.404Z" fill="#F50000"/>
<path d="M148.34 47.1954C147.892 47.8679 148.26 48.1995 148.876 48.2547C149.177 48.2802 149.53 48.0002 150.241 47.6971C149.321 47.4537 148.836 47.3261 148.353 47.1971L148.34 47.1954Z" fill="#F50000"/>
<path d="M146.423 141.022C146.979 141.365 147.419 141.633 148.153 142.088C147.96 140.833 147.96 140.833 146.423 141.022Z" fill="#F50000"/>
<path d="M109.43 93.574C109.533 94.3078 109.597 94.745 109.7 95.4507C110.251 94.9364 110.513 94.6935 110.945 94.2927C110.421 94.0448 110.054 93.8712 109.43 93.574Z" fill="#F50000"/>
<path d="M98.3097 151.15C99.4624 151.878 99.4624 151.878 99.9187 150.486C99.3033 150.737 98.8105 150.94 98.314 151.141L98.3097 151.15Z" fill="#F50000"/>
<path d="M139.858 39.9223C139.499 40.199 139.139 40.4732 138.783 40.7485C138.94 40.9171 139.101 41.0867 139.26 41.26C139.581 40.9329 139.906 40.6091 140.226 40.282C140.101 40.1643 139.982 40.0438 139.858 39.9223Z" fill="#F50000"/>
<path d="M143.724 70.5747C144.382 69.9354 144.828 69.5044 145.596 68.7608C144.673 68.9524 144.191 69.0536 143.648 69.1645C143.674 69.6493 143.691 69.9618 143.724 70.5747Z" fill="#F50000"/>
<path d="M135.375 55.917C135.373 55.9184 135.374 55.9208 135.374 55.9208C135.374 55.9208 135.376 55.9194 135.375 55.917Z" fill="#F50000"/>
<path d="M135.897 53.6116C135.666 54.6367 135.52 55.2766 135.377 55.9157C135.802 55.6009 136.229 55.2853 136.673 54.9559C136.435 54.5434 136.276 54.2683 135.897 53.6116Z" fill="#F50000"/>
<path d="M128.88 81.0979C128.495 81.2413 128.107 81.38 127.717 81.5262C127.81 81.7033 127.901 81.8781 127.993 82.0529C128.349 81.8474 128.702 81.6434 129.058 81.4379C128.996 81.3251 128.94 81.212 128.88 81.0979Z" fill="#F50000"/>
<path d="M133.334 69.9486C133.056 70.7632 132.887 71.2494 132.518 72.3289C133.748 71.4068 133.878 70.8922 133.334 69.9486Z" fill="#F50000"/>
<path d="M159.67 21.3901C159.879 21.2446 160.086 21.1028 160.295 20.9597C159.968 20.6969 159.636 20.433 159.306 20.1715C159.201 20.267 159.098 20.3611 158.993 20.4566C159.219 20.7657 159.443 21.0786 159.67 21.3901Z" fill="#F50000"/>
<path d="M161.428 37.6754C161.014 37.8009 160.597 37.9279 160.18 38.0548C160.204 38.1893 160.222 38.3242 160.245 38.4564C160.64 38.4275 161.035 38.3987 161.43 38.3698C161.428 38.1372 161.427 37.907 161.428 37.6754Z" fill="#F50000"/>
<path d="M106.573 158.877C106.365 159.017 106.156 159.156 105.951 159.296C106.275 159.564 106.601 159.835 106.923 160.104C107.03 160.011 107.135 159.915 107.241 159.822C107.019 159.508 106.793 159.193 106.573 158.877Z" fill="#F50000"/>
<path d="M191.915 99.5631C191.546 99.8452 191.18 100.13 190.813 100.414C190.915 100.498 191.016 100.581 191.116 100.666C191.385 100.295 191.656 99.9308 191.924 99.5638C192.733 99.0493 192.896 98.5194 191.752 97.7095C191.823 98.5285 191.868 99.0465 191.915 99.5631Z" fill="#F50000"/>
<path d="M61.9777 161.416C61.5871 161.534 61.1989 161.651 60.8097 161.771C60.8285 161.896 60.8426 162.024 60.859 162.151C61.2641 162.129 61.6655 162.106 62.0693 162.081C62.0396 161.861 62.0049 161.638 61.9777 161.416Z" fill="#F50000"/>
<path d="M188.751 86.0013C188.429 86.5759 188.111 87.1515 187.793 87.7271C188.787 87.3869 189.246 86.8534 188.773 86.0074L188.751 86.0013Z" fill="#F50000"/>
<path d="M134.129 113.628C132.668 113.861 132.482 114.383 132.904 115.179C132.731 115.56 132.557 115.945 132.164 116.814C132.956 116.429 133.281 116.273 133.606 116.117C133.371 115.804 133.14 115.491 132.906 115.177C133.244 114.745 133.588 114.313 134.129 113.628Z" fill="#F50000"/>
<path d="M114.579 101.513C114.375 100.746 114.294 100.438 114.21 100.129C113.991 100.392 113.772 100.654 113.553 100.917C113.767 101.043 113.982 101.165 114.579 101.513Z" fill="#F50000"/>
<path d="M150.816 55.1575C150.844 55.3691 150.844 55.5931 150.921 55.7859C150.938 55.8266 151.232 55.7484 151.5 55.7109C151.435 55.4893 151.414 55.2578 151.295 55.0956C151.254 55.0343 150.983 55.1308 150.816 55.1575Z" fill="#F50000"/>
<path d="M148.215 55.4957C147.906 55.3102 147.613 55.1287 147.048 54.7815C147.238 55.7088 147.37 56.3124 148.215 55.4957Z" fill="#F50000"/>
<path d="M132.847 69.2302C132.713 69.0701 132.5 68.9782 132.309 68.8545C132.161 69.0884 132.075 69.2329 131.984 69.3742C132.189 69.4677 132.387 69.5874 132.607 69.6311C132.651 69.6371 132.885 69.2745 132.847 69.2302Z" fill="#F50000"/>
<path d="M153.929 57.0621C153.957 57.2736 153.96 57.4963 154.035 57.6867C154.053 57.7274 154.344 57.6506 154.608 57.6121C154.545 57.3892 154.524 57.1613 154.407 56.9978C154.363 56.9379 154.096 57.0353 153.929 57.0621Z" fill="#F50000"/>
<path d="M64.2477 152.244C64.858 151.891 65.1502 151.723 65.8783 151.302C65.135 151.207 64.7706 151.06 64.6636 151.163C64.4773 151.346 64.4492 151.678 64.2477 152.244Z" fill="#F50000"/>
<path d="M102.976 85.1987C103.122 85.2002 103.265 85.2029 103.409 85.202C103.45 84.8052 103.487 84.4075 103.525 84.0097C103.381 84.0107 103.238 84.0078 103.096 84.0074C103.056 84.4066 103.015 84.8033 102.976 85.1987Z" fill="#F50000"/>
<path d="M121.396 124.525C121.048 124.331 120.701 124.137 120.35 123.944C120.275 124.041 120.199 124.138 120.125 124.238C120.447 124.498 120.768 124.755 121.091 125.014C121.192 124.852 121.295 124.688 121.396 124.525Z" fill="#F50000"/>
<path d="M66.2496 160.271C66.4567 160.5 66.6676 160.729 66.877 160.955C67.0075 160.757 67.2935 160.469 67.2401 160.376C67.1087 160.148 66.8194 160.012 66.5951 159.841C66.4795 159.984 66.3638 160.126 66.2496 160.271Z" fill="#F50000"/>
<path d="M118.409 132.103C118.744 131.894 119.026 131.713 119.384 131.484C118.39 131.16 118.39 131.16 118.409 132.103Z" fill="#F50000"/>
<path d="M82.5771 156.835C82.9537 156.943 83.328 157.053 83.7069 157.159C83.759 157.016 83.8097 156.869 83.8618 156.725C83.727 156.639 83.5776 156.456 83.4632 156.481C83.1588 156.553 82.8696 156.71 82.5771 156.835Z" fill="#F50000"/>
<path d="M82.1342 160.58C82.2632 160.809 82.5502 160.947 82.7735 161.121C82.8938 160.976 83.0118 160.832 83.1331 160.683C82.9199 160.455 82.7114 160.225 82.5006 159.995C82.3678 160.195 82.0804 160.481 82.1342 160.58Z" fill="#F50000"/>
<path d="M69.5517 177.164C69.9147 177.444 70.1221 177.602 70.3273 177.762C70.4873 177.391 70.6476 177.021 71.0666 176.049C70.2112 176.679 69.9032 176.907 69.5517 177.164Z" fill="#F50000"/>
<path d="M135.374 55.9208C135.224 56.4279 135.075 56.9379 134.927 57.4437C135.125 57.4495 135.325 57.4538 135.523 57.4595C135.472 56.9456 135.426 56.4347 135.374 55.9208Z" fill="#F50000"/>
<path d="M116.866 44.0167C117.636 44.2933 118.019 44.4292 118.629 44.6488C118.449 44.108 118.371 43.8749 118.293 43.6418L118.266 43.6323C117.951 43.719 117.637 43.8058 116.866 44.0167Z" fill="#F50000"/>
<path d="M127.224 88.187C126.983 88.2118 126.745 88.2011 126.531 88.2771C126.474 88.2975 126.458 88.7112 126.506 88.7243C126.714 88.7846 126.953 88.7635 127.182 88.7736C127.194 88.6149 127.208 88.4487 127.224 88.187Z" fill="#F50000"/>
<path d="M120.9 92.5428C120.513 92.6398 120.127 92.7391 119.739 92.8338C119.757 92.9527 119.776 93.0717 119.794 93.1907C120.184 93.1645 120.575 93.1384 120.965 93.1122C120.943 92.9224 120.919 92.7339 120.9 92.5428Z" fill="#F50000"/>
<path d="M160.97 148.723C161.342 148.865 161.71 149.007 162.079 149.151C162.14 149.024 162.202 148.897 162.264 148.77C161.895 148.625 161.528 148.48 161.161 148.335C161.098 148.466 161.034 148.594 160.97 148.723Z" fill="#F50000"/>
<path d="M161.292 28.0312C161.294 28.0336 161.294 28.0336 161.294 28.0336L161.292 28.0312Z" fill="#F50000"/>
<path d="M135.604 52.3576C135.765 52.3373 136.039 52.3497 136.061 52.2897C136.139 52.0929 136.122 51.8685 136.143 51.6541C136.011 51.6483 135.88 51.6387 135.748 51.6328C135.699 51.8757 135.653 52.1172 135.604 52.3576Z" fill="#F50000"/>
<path d="M56.1763 145.388C56.149 145.498 56.118 145.608 56.0884 145.72C56.3505 145.793 56.6113 145.863 56.8734 145.937C56.9104 145.767 56.9502 145.601 56.9871 145.431C56.7176 145.416 56.4458 145.403 56.1763 145.388Z" fill="#F50000"/>
<path d="M120.022 118.434C119.762 118.359 119.507 118.282 119.25 118.202C119.202 118.325 119.156 118.447 119.112 118.567C119.373 118.638 119.631 118.71 119.891 118.778C119.932 118.665 119.978 118.548 120.022 118.434Z" fill="#F50000"/>
<path d="M134.335 111.437C134.42 111.378 134.505 111.323 134.585 111.267C134.422 111.023 134.26 110.775 134.098 110.531C134.007 110.593 133.917 110.654 133.826 110.713C133.996 110.953 134.167 111.196 134.335 111.437Z" fill="#F50000"/>
<path d="M123.037 123.009C123.156 123.029 123.275 123.046 123.393 123.066C123.481 122.826 123.567 122.583 123.653 122.34C123.493 122.307 123.33 122.271 123.17 122.237C123.126 122.493 123.081 122.753 123.037 123.009Z" fill="#F50000"/>
<path d="M134.84 115.518C134.813 115.619 134.79 115.714 134.764 115.811C135.012 115.848 135.261 115.882 135.511 115.918C135.532 115.829 135.551 115.743 135.572 115.654C135.327 115.61 135.083 115.564 134.84 115.518Z" fill="#F50000"/>
<path d="M115.407 134.434C115.672 134.486 115.938 134.538 116.204 134.59C116.238 134.47 116.272 134.349 116.308 134.227C116.041 134.172 115.773 134.122 115.506 134.067C115.472 134.188 115.439 134.311 115.407 134.434Z" fill="#F50000"/>
<path d="M138.547 66.7457C138.813 66.8137 139.076 66.883 139.339 66.9524C139.379 66.8374 139.422 66.721 139.467 66.6033C139.203 66.5316 138.943 66.4571 138.682 66.3803C138.633 66.5031 138.591 66.6256 138.547 66.7457Z" fill="#F50000"/>
<path d="M96.1056 150.319C96.3626 150.389 96.6197 150.459 96.8758 150.532C96.9104 150.364 96.945 150.195 96.981 150.029C96.7166 150.017 96.4509 150.003 96.1851 149.989C96.1602 150.098 96.1329 150.209 96.1056 150.319Z" fill="#F50000"/>
<path d="M102.368 146.771C102.248 146.765 102.134 146.758 102.016 146.75C101.96 147.013 101.9 147.278 101.843 147.539C101.979 147.552 102.117 147.561 102.255 147.573C102.29 147.306 102.328 147.041 102.368 146.771Z" fill="#F50000"/>
<path d="M132.416 131.243C132.695 130.911 132.879 130.691 133.06 130.476L133.064 130.461C132.76 130.516 132.455 130.575 132.15 130.631C132.229 130.816 132.306 130.999 132.416 131.243Z" fill="#F50000"/>
<path d="M120.155 142.005C120.213 141.769 120.273 141.529 120.33 141.291C120.181 141.288 119.924 141.247 119.905 141.289C119.819 141.488 119.796 141.71 119.748 141.927C119.883 141.953 120.02 141.978 120.155 142.005Z" fill="#F50000"/>
<path d="M70.9395 175.056C71.1374 175.116 71.3711 175.085 71.5898 175.088C71.6075 174.961 71.6228 174.835 71.6358 174.711C71.3899 174.682 71.1439 174.653 70.899 174.621C70.9085 174.774 70.8772 175.035 70.9395 175.056Z" fill="#F50000"/>
<path d="M121.579 151.476C121.557 151.574 121.535 151.672 121.511 151.771C121.761 151.807 122.006 151.845 122.254 151.883C122.279 151.795 122.299 151.705 122.318 151.618C122.073 151.57 121.83 151.524 121.579 151.476Z" fill="#F50000"/>
<path d="M116.732 155.216C116.977 155.286 117.225 155.358 117.47 155.428C117.521 155.266 117.569 155.105 117.618 154.944C117.354 154.917 117.087 154.89 116.823 154.863C116.794 154.981 116.761 155.098 116.732 155.216Z" fill="#F50000"/>
<path d="M109.809 163.742C109.901 163.755 109.991 163.77 110.085 163.785C110.151 163.545 110.215 163.302 110.284 163.063C110.184 163.048 110.081 163.032 109.98 163.015C109.922 163.257 109.867 163.5 109.809 163.742Z" fill="#F50000"/>
<path d="M153.365 16.613C153.365 16.613 153.365 16.613 153.367 16.6116L153.366 16.6092L153.365 16.613Z" fill="#F50000"/>
<path d="M142.13 65.8493C142.131 65.6876 142.132 65.5258 142.135 65.3628C141.746 65.4452 141.355 65.5252 140.969 65.6063C140.663 65.6692 140.361 65.7295 140.055 65.7924C140.137 65.9666 140.216 66.142 140.322 66.3808C140.605 66.0436 140.787 65.825 140.969 65.6063C141.356 65.6893 141.744 65.7687 142.13 65.8493Z" fill="#F50000"/>
<path d="M159.568 149.39C159.835 149.438 160.1 149.49 160.371 149.54C160.401 149.418 160.431 149.296 160.461 149.174C160.195 149.126 159.93 149.076 159.665 149.03C159.634 149.15 159.599 149.271 159.568 149.39Z" fill="#F50000"/>
<path d="M146.321 65.2225C146.422 65.2399 146.526 65.256 146.626 65.2711C146.685 65.0312 146.742 64.7928 146.8 64.5506C146.707 64.5352 146.617 64.5208 146.521 64.5067C146.457 64.7455 146.39 64.9833 146.321 65.2225Z" fill="#F50000"/>
<path d="M158.118 43.0291C158.074 43.2668 158.026 43.506 157.979 43.7451C158.138 43.7261 158.412 43.7385 158.433 43.6822C158.503 43.4833 158.488 43.2613 158.508 43.0508C158.377 43.0412 158.248 43.0363 158.118 43.0291Z" fill="#F50000"/>
<path d="M165.627 57.1545C165.579 57.3974 165.529 57.6378 165.477 57.8796C165.637 57.857 165.905 57.8697 165.934 57.8056C166.011 57.6126 165.996 57.3905 166.017 57.1761C165.887 57.1689 165.757 57.1617 165.627 57.1545Z" fill="#F50000"/>
<path d="M145.158 152.501C145.289 152.488 145.421 152.478 145.552 152.466C145.473 152.208 145.395 151.949 145.317 151.694C145.264 151.962 145.209 152.231 145.158 152.501Z" fill="#F50000"/>
<path d="M134.084 153.217C134.195 152.963 134.306 152.709 134.413 152.455C134.196 152.644 133.978 152.832 133.758 153.023C133.867 153.086 133.975 153.154 134.084 153.217Z" fill="#F50000"/>
<path d="M134.414 152.451C134.416 152.453 134.416 152.453 134.413 152.455C134.416 152.453 134.416 152.453 134.418 152.452C134.417 152.45 134.414 152.451 134.414 152.451Z" fill="#F50000"/>
<path d="M150.761 136.862C150.761 136.862 150.761 136.862 150.763 136.86C150.761 136.862 150.761 136.862 150.758 136.863L150.761 136.862Z" fill="#F50000"/>
<path d="M151.089 136.097C150.979 136.353 150.87 136.605 150.763 136.86C150.979 136.669 151.195 136.481 151.415 136.291C151.304 136.225 151.198 136.16 151.089 136.097Z" fill="#F50000"/>
<path d="M108.112 156.563L108.109 156.564C108.112 156.563 108.112 156.563 108.112 156.563Z" fill="#F50000"/>
<path d="M109.464 156.042C108.618 156.368 108.365 156.468 108.112 156.563C108.201 156.718 108.288 156.869 108.377 157.023C108.59 156.83 108.807 156.635 109.464 156.042Z" fill="#F50000"/>
<path d="M108.379 157.025C108.377 157.023 108.377 157.023 108.377 157.023C108.377 157.023 108.377 157.023 108.375 157.024L108.379 157.025Z" fill="#F50000"/>
<path d="M66.1337 154.335C65.5949 154.485 64.6948 154.28 65.1853 155.587C65.5729 155.088 65.8619 154.713 66.1523 154.34C66.3636 154.145 66.5758 153.947 66.787 153.752C66.6818 153.69 66.5715 153.624 66.4649 153.559C66.3542 153.819 66.242 154.076 66.1337 154.335Z" fill="#F50000"/>
<path d="M103.107 130.627C102.846 130.544 102.588 130.456 102.326 130.373C102.512 130.57 102.696 130.764 102.88 130.958C102.957 130.85 103.032 130.737 103.107 130.627Z" fill="#F50000"/>
<path d="M126.017 93.6289C126.094 93.8878 126.171 94.1464 126.248 94.4053C126.307 94.1374 126.363 93.8687 126.415 93.6011C126.283 93.6112 126.148 93.6226 126.017 93.6289Z" fill="#F50000"/>
<path d="M150.233 70.1042C150.51 70.1335 150.789 70.1652 151.066 70.1983C151.063 70.0735 151.063 69.9474 151.058 69.8203C150.786 69.9143 150.507 70.0088 150.234 70.1005L150.233 70.1042Z" fill="#F50000"/>
<path d="M151.961 65.6145C151.687 65.7001 151.413 65.782 151.139 65.8676L151.124 65.9174C151.405 65.9417 151.687 65.9622 151.97 65.985C151.967 65.8603 151.964 65.7392 151.961 65.6145Z" fill="#F50000"/>
<path d="M138.671 55.8632C138.858 56.0558 139.043 56.2521 139.23 56.4447C139.306 56.3374 139.379 56.2291 139.454 56.1194C139.195 56.0314 138.937 55.9434 138.675 55.8544L138.671 55.8632Z" fill="#F50000"/>
<path d="M146.82 48.4013C146.748 48.5096 146.672 48.6169 146.599 48.7252C146.857 48.8132 147.117 48.9036 147.375 48.9916C147.563 49.1866 147.751 49.3815 147.941 49.5751C148.016 49.4654 148.089 49.3571 148.164 49.2475C147.902 49.1585 147.642 49.0681 147.38 48.979C147.195 48.7827 147.009 48.5925 146.82 48.4013Z" fill="#F50000"/>
<path d="M137.031 42.6825C137.228 42.8659 137.424 43.047 137.623 43.229C137.696 43.1207 137.768 43.0124 137.84 42.9079C137.577 42.8127 137.316 42.7139 137.05 42.6178L137.031 42.6825Z" fill="#F50000"/>
<path d="M118.62 42.8689C118.503 43.123 118.385 43.3768 118.266 43.6323L118.293 43.6418C118.507 43.4458 118.722 43.2525 118.937 43.0589C118.828 42.9953 118.725 42.9314 118.62 42.8689Z" fill="#F50000"/>
<path d="M153.633 17.0772C153.631 17.0749 153.631 17.0749 153.632 17.0711C153.63 17.0725 153.63 17.0725 153.63 17.0725C153.631 17.0749 153.631 17.0749 153.633 17.0772Z" fill="#F50000"/>
<path d="M153.874 17.865C153.791 17.6027 153.711 17.3385 153.633 17.0772C153.579 17.3425 153.522 17.6097 153.469 17.8773C153.604 17.8719 153.737 17.8679 153.874 17.865Z" fill="#F50000"/>
<path d="M155.02 15.4519C154.931 15.386 154.844 15.3224 154.752 15.2555C154.589 15.4951 154.424 15.7324 154.257 15.9711C154.294 15.991 154.33 16.0147 154.366 16.0346C154.032 16.2278 153.699 16.4198 153.367 16.6116C153.456 16.7657 153.545 16.9194 153.632 17.0711C154.335 17.0098 154.955 16.8961 154.368 16.037C154.385 16.0458 154.401 16.0559 154.416 16.0661C154.618 15.8609 154.82 15.6557 155.02 15.4519Z" fill="#F50000"/>
<path d="M133.12 38.145C133.516 38.4504 133.678 38.3504 133.617 37.8579C133.45 37.9545 133.285 38.0498 133.12 38.145Z" fill="#F50000"/>
<path d="M59.9817 142.514C59.9817 142.514 59.9814 142.514 59.98 142.512L59.9817 142.514Z" fill="#F50000"/>
<path d="M70.4969 117.986C70.4956 117.984 70.4956 117.984 70.4956 117.984L70.4969 117.986Z" fill="#F50000"/>
<path d="M70.4956 117.984C71.0667 117.493 72.1202 117.412 72.1692 116.262C70.7624 116.252 70.4566 116.969 70.4956 117.984Z" fill="#F50000"/>
<path d="M67.2995 112.448C67.7324 112.811 68.1665 113.177 68.5984 113.544C68.9035 113.055 69.2087 112.566 69.8769 111.497C68.5964 111.968 67.9461 112.207 67.2995 112.448Z" fill="#F50000"/>
<path d="M67.5269 115.149C68.0169 115.998 68.225 116.359 68.4317 116.717C68.6633 116.497 68.8987 116.279 69.2056 115.995C68.709 115.744 68.3763 115.576 67.5269 115.149Z" fill="#F50000"/>
<path d="M68.5984 113.544C68.2932 113.739 67.9883 113.935 67.6817 114.128C68.3516 114.493 68.5727 114.169 68.5984 113.544Z" fill="#F50000"/>
<path d="M75.8486 100.719C75.6378 100.92 75.4316 101.118 75.2207 101.319C75.3273 101.384 75.4339 101.449 75.5391 101.511C75.6596 101.252 75.7802 100.993 75.9017 100.73L75.8486 100.719Z" fill="#F50000"/>
<path d="M74.323 79.1276C74.4489 79.1498 74.5748 79.1719 74.7007 79.1941C74.7726 78.9376 74.8417 78.6764 74.9183 78.4173C74.7947 78.3938 74.6689 78.3716 74.5439 78.3457C74.4711 78.6059 74.3982 78.8661 74.323 79.1276Z" fill="#F50000"/>
<path d="M87.3315 69.6164C88.2697 69.5489 89.2055 69.4827 90.8072 69.3672C89.2311 68.4659 88.2745 68.5504 87.3315 69.6164Z" fill="#F50000"/>
<path d="M90.1082 52.7928C89.2714 52.6659 88.6542 52.5765 88.038 52.4833C87.692 52.8854 87.346 53.2875 86.8575 53.8508C87.5656 54.1848 88.0839 54.4294 88.7038 54.7195C89.2177 54.015 89.6201 53.4603 90.1082 52.7928Z" fill="#F50000"/>
<path d="M108.396 63.4951C108.231 63.5904 108.066 63.6856 107.899 63.7822C108.294 64.0792 108.463 63.991 108.396 63.4951Z" fill="#F50000"/>
<path d="M75.9621 66.2228C75.7995 66.3167 75.6359 66.4143 75.476 66.5129C75.8839 66.8275 76.0256 66.6919 75.9621 66.2228Z" fill="#F50000"/>
<path d="M179.328 46.3133C179.115 46.0205 178.767 45.8957 178.739 46.102C178.731 46.1653 178.591 46.2331 178.429 46.253C178.185 46.2828 178.118 46.3995 178.047 46.9215C178 47.2693 177.857 48.0263 177.73 48.6036L177.497 49.6532L173.462 49.1687L173.187 50.9157C173.036 51.8765 172.961 52.7202 173.021 52.7903C173.082 52.8622 173.314 52.8759 173.553 52.8224C173.807 52.7657 173.971 52.7725 174.068 52.8443L174.141 52.9117C174.233 52.9745 174.373 52.9384 174.581 52.7997C174.857 52.6155 175.176 52.5843 176.162 52.6479C177.052 52.7051 177.423 52.7764 177.488 52.9023C177.635 53.1903 177.624 54.7426 177.469 55.7067C177.303 56.74 177.402 56.891 178.128 56.7055C178.642 56.5743 179.065 56.6776 179.031 56.927C179.018 57.0224 179.076 57.0243 179.204 56.9325C179.31 56.857 179.513 56.8085 179.655 56.8245C179.845 56.8457 179.926 56.7516 179.964 56.4676C179.993 56.2555 180.11 55.9422 180.224 55.7717C180.382 55.5367 180.397 55.4123 180.288 55.2567C180.07 54.9467 180.401 53.5653 180.783 53.195C181.091 52.8955 181.13 52.8937 182.7 53.0948C183.597 53.2097 184.369 53.2503 184.454 53.1872C184.537 53.1245 184.693 52.5769 184.802 51.97L185 50.8656L184.566 50.8586C183.486 50.8413 183.269 50.8008 183.292 50.6183C183.305 50.5165 183.238 50.3994 183.144 50.3584C183.049 50.3174 182.96 50.377 182.945 50.4907C182.906 50.7735 181.873 50.6524 181.435 50.3138C181.158 50.0997 181.13 49.9954 181.256 49.632C181.338 49.3962 181.37 49.0949 181.328 48.962C181.286 48.8291 181.316 48.2978 181.395 47.7817C181.542 46.8213 181.443 46.5424 181.04 46.7782C180.709 46.9719 180.394 46.7612 180.445 46.3798C180.497 45.9923 180.275 45.9138 180.102 46.2585C179.925 46.6128 179.565 46.6383 179.328 46.3133Z" fill="#F50000"/>
<path d="M30 26.9548C30 27.4919 30.9311 29.2823 32.0949 30.9532C34.4808 34.2952 36.4012 37.6968 36.4012 38.5323C36.4012 38.771 35.5283 39.2484 34.539 39.4274C33.4916 39.6661 31.9786 40.1435 31.222 40.3822C29.4181 41.0984 29.7672 41.5161 38.147 48.4387C41.8131 51.4226 45.4793 54.6451 46.2358 55.4806C47.807 57.2113 49.4946 57.5097 49.9601 56.1371C50.1929 55.6597 49.3782 53.929 48.2725 52.1984C45.3047 47.7822 42.686 43.1871 43.0352 42.8887C43.1516 42.7097 44.5482 42.2919 46.0612 41.8742C47.5742 41.5161 48.9126 40.8597 49.029 40.5016C49.32 39.6064 32.6769 26 31.222 26C30.4655 26 30 26.3581 30 26.9548Z" fill="#F50000"/>
<path d="M37.4465 119.363C31.5897 120.969 26.7258 122.536 26.5418 122.908C26.2525 123.493 28.6995 126.159 30.3166 126.958C31.6207 127.603 29.1054 129.934 24.2113 132.744C21.28 134.472 19.4992 135.842 19.445 136.477C19.3377 137.351 19.6248 137.427 21.6112 137.085C22.892 136.857 24.3297 136.575 24.8263 136.49C25.3492 136.351 29.5057 135.427 34.0804 134.445C38.6814 133.41 42.4986 132.384 42.5521 132.013C42.6314 131.722 41.6683 130.65 40.4176 129.635C39.1407 128.672 38.2039 127.547 38.2836 127.124C38.3112 126.674 40.3273 125.221 42.7875 123.79C50.796 119.144 50.796 119.144 50.2244 118.199C49.1591 116.415 47.6434 116.592 37.4465 119.363Z" fill="#F50000"/>
<path d="M183.242 110.988C177.633 108.997 172.878 107.639 172.621 107.919C172.313 108.229 172.478 109.723 172.939 111.244C174.013 114.794 173.409 115.076 165.621 114.741C162.357 114.639 159.341 114.726 158.975 114.937C157.146 115.993 158.852 117.259 164.399 119.021C167.565 120.039 172.493 121.695 175.311 122.716C178.101 123.686 180.634 124.21 180.89 123.93C181.198 123.619 181.057 122.046 180.672 120.415C180.259 118.734 180.07 117.32 180.331 117.17C180.54 117.049 183.399 117.053 186.611 117.185C193.248 117.457 194.494 117.201 193.872 115.64C193.604 114.935 189.96 113.331 183.242 110.988Z" fill="#F50000"/>
<path d="M38.3646 152.652C38.3908 152.248 38.6369 151.94 38.7809 152.131C38.8254 152.189 38.9924 152.183 39.152 152.117C39.392 152.018 39.5203 152.1 39.8852 152.582C40.1284 152.904 40.6952 153.584 41.1444 154.092L41.9612 155.016L45.3692 152.403L46.6263 154C47.3175 154.879 47.872 155.68 47.8576 155.782C47.8426 155.886 47.6388 156.022 47.3899 156.095C47.1253 156.172 46.9785 156.266 46.9315 156.389L46.9033 156.494C46.8559 156.605 46.7066 156.643 46.4371 156.614C46.0789 156.576 45.7696 156.713 44.9043 157.297C44.1246 157.824 43.8264 158.091 43.8397 158.25C43.8714 158.615 44.7741 160.157 45.4709 161.036C46.2177 161.979 46.2135 162.181 45.4435 162.38C44.8979 162.52 44.5719 162.847 44.746 163.078C44.8122 163.166 44.761 163.197 44.5907 163.174C44.4505 163.155 44.2372 163.214 44.1169 163.304C43.9558 163.426 43.8271 163.375 43.6288 163.111C43.4808 162.915 43.1927 162.665 42.9899 162.556C42.7106 162.405 42.6252 162.287 42.6356 162.075C42.6559 161.65 41.5582 160.449 40.9966 160.281C40.5423 160.145 40.5062 160.164 39.1874 161.192C38.4339 161.78 37.7509 162.228 37.6372 162.21C37.5251 162.192 37.0672 161.728 36.6185 161.18L35.8018 160.184L36.1945 159.948C37.1717 159.361 37.3453 159.206 37.2196 159.036C37.1495 158.941 37.1438 158.789 37.2063 158.698C37.269 158.608 37.3849 158.62 37.4643 158.725C37.6623 158.987 38.5369 158.32 38.7425 157.752C38.8722 157.392 38.8371 157.274 38.5128 156.979C38.3022 156.787 38.0998 156.503 38.0619 156.348C38.0241 156.193 37.6905 155.679 37.3213 155.206C36.6343 154.326 36.5637 153.996 37.0676 154.019C37.4821 154.037 37.6485 153.661 37.3824 153.308C37.1119 152.949 37.2689 152.754 37.6255 153.006C37.9917 153.266 38.3357 153.1 38.3646 152.652Z" fill="#F50000"/>
<path d="M145.845 147.589C144.733 147.84 144.845 149.162 146.483 154.162C147.065 155.969 147.671 158.619 147.857 160.095C148.323 163.144 147.898 163.444 144.279 162.815C140.411 162.164 140.405 162.547 144.256 168.9C148.349 175.658 153.813 183.796 154.383 183.996C155.409 184.356 155.539 181.067 154.668 178.26C153.538 174.914 152.214 169.383 152.374 168.926C152.434 168.755 154.059 168.684 155.949 168.77C157.859 168.799 159.484 168.727 159.564 168.499C159.805 167.814 158.824 165.866 155.215 159.919C153.244 156.598 150.826 152.543 149.936 150.885C148.21 147.778 147.513 147.213 145.845 147.589Z" fill="#F50000"/>
<path d="M96.2433 45.3128C97.2779 45.4375 100.258 45.6949 102.856 45.9366C105.443 46.2245 107.626 46.3496 107.733 46.319C107.834 46.2879 110.122 46.6692 112.853 47.2688C118.461 48.4446 126.038 50.7644 126.769 51.558C127.057 51.8459 127.796 52.3056 128.465 52.6091C129.406 53.0059 129.6 53.2785 129.258 53.8929C128.861 54.5461 128.908 54.5535 129.702 54.1103C130.44 53.7062 130.721 53.7534 131.203 54.3135C131.521 54.702 131.825 54.8963 131.856 54.7102C131.88 54.5704 133.653 55.7296 135.831 57.3402C141.509 61.55 145.607 66.8875 147.131 72.1311C149.735 80.961 149.72 80.767 148.887 86.0486C148.35 89.2691 147.625 91.8833 146.808 93.618C146.131 95.0882 145.399 96.8851 145.173 97.663C144.752 99.0327 140.652 106.072 138.66 108.81C138.045 109.619 136.605 111.633 135.462 113.313C134.372 114.954 132.722 117.078 131.944 118.003C131.119 118.921 129.75 120.515 128.948 121.581C124.575 127.376 112.149 139.743 104.703 145.841C96.6502 152.413 92.0283 153.944 87.5089 151.415C85.5799 150.325 82.7027 147.447 83.7295 147.618C84.0092 147.664 84.2424 147.416 84.1573 147.066C84.1106 146.77 83.7291 146.467 83.2934 146.49C82.5229 146.504 79.5754 142.319 75.5942 135.706C71.8851 129.475 69.2724 123.858 69.8086 123.227C69.9953 122.97 69.8401 122.752 69.4203 122.682C69.0003 122.612 68.6033 122.114 68.5489 121.577C68.4946 121.04 68.2841 120.574 68.0974 120.542C67.8642 120.503 67.6156 119.982 67.5302 119.344C67.4836 118.761 66.7375 116.621 65.96 114.668C64.2885 110.599 60.9461 100.162 61.0617 99.4589C61.1007 99.2255 60.7428 97.6304 60.2609 95.9189C59.328 92.5968 57.7749 80.0558 57.7835 75.6915C57.8076 72.6729 60.4931 63.1905 61.8004 61.6814C62.2127 61.2225 63.0531 59.9239 63.7223 58.7884C64.6016 57.2561 65.0534 56.8514 65.5822 57.1314C66.1501 57.466 66.2665 57.3417 66.1811 56.4161C65.9405 53.8333 71.5506 49.8282 77.7822 48.1335C79.8438 47.566 82.5594 46.8192 83.812 46.5005C86.4263 45.7854 93.4971 45.0945 96.2433 45.3128ZM104.347 137.625C103.974 137.563 103.615 137.695 103.568 137.975C103.53 138.209 103.841 138.357 104.238 138.279C104.642 138.155 105 138.022 105.016 137.929C105.031 137.836 104.72 137.687 104.347 137.625ZM102.557 75.3717C102.516 74.575 101.259 74.9666 100.432 76.0348C99.5144 77.2205 98.2568 77.0336 97.7291 75.633C97.2151 74.2698 96.418 74.5155 96.4951 76.0127C96.5709 77.4855 95.4072 78.2136 94.2957 77.3901C92.9453 76.3868 92.5239 77.4303 92.7797 81.145C92.9168 83.1411 92.8785 85.1837 92.6935 85.6824C92.5094 86.1808 92.5396 87.3428 92.7632 88.2661C93.1084 89.6889 92.9829 90.0813 91.952 90.8324C90.3219 92.0202 86.6628 92.2274 86.6038 91.1352C86.5811 90.6958 86.2839 90.4456 85.9412 90.5792C85.5994 90.7129 85.3325 91.144 85.3497 91.5369C85.3795 92.2417 84.6097 92.3433 80.8133 92.1409L79.2869 92.0603L79.682 96.3391C79.8994 98.69 80.2996 100.826 80.5746 101.087C80.8544 101.35 83.578 101.386 86.758 101.169C92.3241 100.789 92.4581 100.806 93.4601 102.029C94.6986 103.542 95.489 108.914 94.64 110.048C94.214 110.616 94.2319 111.097 94.7215 112.036C95.0773 112.717 95.4042 113.947 95.4466 114.766C95.5033 115.863 95.7635 116.244 96.435 116.209C96.9367 116.183 97.636 116.42 97.9877 116.735C98.4153 117.119 98.6171 117.126 98.5981 116.757C98.549 115.794 100.058 115.503 101.828 116.133C104.326 117.024 104.716 116.47 104.412 112.472C104.129 108.741 104.513 102.794 105.106 101.727C105.367 101.261 106.691 101.08 109.829 101.082C113.31 101.084 114.421 101.283 115.34 102.057C116.031 102.639 116.516 102.812 116.854 102.595L117.129 102.355C117.488 102.104 118.067 102.119 118.942 102.399C119.766 102.663 120.584 102.668 120.82 102.408C121.049 102.155 121.015 98.9048 120.745 95.1878L120.253 88.4282L105.957 89.2812L105.424 85.2032C105.132 82.9607 104.836 80.0259 104.765 78.6823C104.658 76.6656 104.455 76.2021 103.607 76.0275C103.043 75.9109 102.571 75.6165 102.557 75.3717ZM132.926 107.517C132.817 107.307 132.631 107.564 132.592 108.085C132.506 108.598 132.623 108.762 132.825 108.412C133.02 108.108 133.043 107.681 132.926 107.517ZM135.152 104.818C135.02 103.309 134.39 103.635 134.358 105.261C134.35 106.171 134.483 106.529 134.771 106.242C135.012 105.946 135.168 105.3 135.152 104.818ZM136.732 103.115C136.817 102.601 135.503 102.43 135.09 102.889C134.904 103.146 135.207 103.34 135.728 103.379C136.249 103.417 136.7 103.301 136.732 103.115ZM139.001 76.0042C139.46 75.2653 139.203 75.0782 138.659 75.7548C138.614 75.802 138.575 75.8502 138.541 75.8982L138.867 76.2189C138.912 76.1563 138.959 76.0848 139.001 76.0042ZM100.097 68.7919C99.2106 68.6443 98.5263 69.2971 99.0702 69.7717C99.2801 69.9506 99.7312 69.8346 100.12 69.5161C100.68 69.0339 100.704 68.8932 100.097 68.7919ZM95.959 68.5812C96.0524 68.0212 96.0054 68.013 95.0253 68.4251C94.3562 68.6972 94.3875 68.7983 95.0875 68.9151C95.5075 68.9851 95.92 68.8146 95.959 68.5812ZM69.0422 66.0082C68.8089 65.9695 68.5363 66.164 68.4896 66.4439C68.4506 66.6772 68.6685 66.8095 68.9251 66.7087C69.2284 66.6155 69.4543 66.4131 69.4777 66.273C69.4931 66.1797 69.3221 66.0549 69.0422 66.0082ZM136.684 67.1741C134.857 65.4778 134.118 65.5943 135.401 67.3916C135.751 67.8815 136.49 68.3405 136.972 68.3252C137.742 68.3097 137.68 68.1075 136.684 67.1741ZM110.274 61.8546C109.855 61.7845 109.535 61.9713 109.581 62.2666C109.628 62.5623 109.878 62.7958 110.111 62.8347C110.344 62.8736 110.656 62.7335 110.796 62.4691C110.935 62.2048 110.694 61.9246 110.274 61.8546ZM104.44 60.8816C104.207 60.8427 103.942 60.9901 103.903 61.2234C103.856 61.5034 104.035 61.8694 104.245 62.0484C104.501 62.2352 104.72 62.079 104.782 61.7056C104.852 61.2857 104.72 60.9283 104.44 60.8816ZM96.9415 58.6708C96.8015 58.6475 96.5364 58.7944 96.3497 59.0509C96.1708 59.2608 96.2251 59.51 96.4583 59.549C96.7384 59.5958 97.0112 59.4014 97.0502 59.168C97.0967 58.8887 97.0345 58.6871 96.9415 58.6708ZM98.2015 59.1682C98.015 58.2739 97.711 58.0793 97.6019 58.7322C97.5551 59.0123 97.6882 59.3706 97.9449 59.5573C98.2013 59.7438 98.2792 59.5649 98.2015 59.1682ZM73.8367 56.2541C73.7433 56.2385 73.5022 56.5343 73.2532 56.8765C73.0509 57.2265 73.0895 57.5688 73.3228 57.6079C73.6028 57.6545 73.844 57.3587 73.9063 56.9854C73.9686 56.6122 73.9299 56.27 73.8367 56.2541ZM95.7747 57.0365C95.6346 57.0131 95.3696 57.1609 95.1828 57.4175C95.0041 57.6274 95.0585 57.8766 95.2915 57.9157C95.5714 57.9624 95.8441 57.7679 95.8833 57.5347C95.93 57.2549 95.8678 57.0524 95.7747 57.0365ZM107.787 50.8849C107.693 50.8697 107.429 51.0178 107.242 51.2742C107.063 51.4842 107.212 51.7486 107.632 51.8187C108.051 51.8886 108.277 51.6869 108.176 51.4304C108.083 51.127 107.88 50.9005 107.787 50.8849Z" fill="#F50000"/>
</g>
<defs>
<clipPath id="clip0_181_3445">
<rect width="200" height="200" fill="white"/>
</clipPath>
</defs>
</svg>
