<svg width="49" height="48" viewBox="0 0 49 48" fill="none" xmlns="http://www.w3.org/2000/svg">
<path d="M10.1914 5.85815L13.0194 8.68615C11.5315 10.1703 10.3515 11.9339 9.54731 13.8755C8.74313 15.8171 8.33059 17.8986 8.33339 20.0001C8.33339 24.4201 10.1234 28.4201 13.0194 31.3141L10.1934 34.1401C8.33333 32.2855 6.85811 30.0815 5.85245 27.6549C4.84681 25.2283 4.33057 22.6269 4.33339 20.0001C4.33003 17.3732 4.84583 14.7715 5.85115 12.3446C6.85645 9.91761 8.33145 7.71325 10.1914 5.85815ZM38.4754 5.85815C40.3354 7.71325 41.8104 9.91761 42.8156 12.3446C43.821 14.7715 44.3368 17.3732 44.3334 20.0001C44.3368 22.6271 43.821 25.2287 42.8156 27.6557C41.8104 30.0827 40.3354 32.2871 38.4754 34.1421L35.6474 31.3141C37.1354 29.8299 38.3154 28.0665 39.1194 26.1247C39.9236 24.1831 40.3362 22.1017 40.3334 20.0001C40.3334 15.5802 38.5434 11.5802 35.6474 8.68615L38.4734 5.86015L38.4754 5.85815ZM15.8474 11.5142L18.6774 14.3442C17.9333 15.086 17.3432 15.9676 16.9409 16.9382C16.5387 17.9089 16.3322 18.9495 16.3334 20.0001C16.3334 22.2101 17.2294 24.2101 18.6774 25.6561L15.8474 28.4861C14.7315 27.3729 13.8465 26.0501 13.2435 24.5939C12.6404 23.1375 12.3311 21.5763 12.3334 20.0001C12.3334 16.6862 13.6774 13.6862 15.8474 11.5142ZM32.8194 11.5142C33.9354 12.6274 34.8202 13.9501 35.4234 15.4064C36.0264 16.8628 36.3356 18.4239 36.3334 20.0001C36.3356 21.5763 36.0264 23.1375 35.4234 24.5939C34.8202 26.0501 33.9354 27.3729 32.8194 28.4861L29.9894 25.6561C30.7334 24.9143 31.3236 24.0327 31.7258 23.0621C32.1282 22.0915 32.3346 21.0509 32.3334 20.0001C32.3346 18.9495 32.1282 17.9089 31.7258 16.9382C31.3236 15.9676 30.7334 15.086 29.9894 14.3442L32.8194 11.5142ZM24.3334 24.0001C23.2726 24.0001 22.2552 23.5787 21.505 22.8285C20.7548 22.0785 20.3334 21.0609 20.3334 20.0001C20.3334 18.9393 20.7548 17.9219 21.505 17.1717C22.2552 16.4216 23.2726 16.0002 24.3334 16.0002C25.3942 16.0002 26.4116 16.4216 27.1618 17.1717C27.912 17.9219 28.3334 18.9393 28.3334 20.0001C28.3334 21.0609 27.912 22.0785 27.1618 22.8285C26.4116 23.5787 25.3942 24.0001 24.3334 24.0001ZM24.3334 28.0001C25.4934 28.0001 26.4874 28.8261 26.7014 29.9661L29.3334 44.0001H19.3334L21.9654 29.9661C22.1794 28.8261 23.1734 28.0001 24.3334 28.0001Z" fill="#00513F"/>
</svg>
