<svg width="48" height="48" viewBox="0 0 48 48" fill="none" xmlns="http://www.w3.org/2000/svg">
<path fill-rule="evenodd" clip-rule="evenodd" d="M10 6V8.69416C8.7019 9.08068 7.55272 9.6812 6.61696 10.617C5.48418 11.7498 4.84266 13.1953 4.47732 14.8392C4.11704 16.4604 4 18.3911 4 20.624V31.376C4 33.6088 4.11704 35.5396 4.47732 37.1608C4.84266 38.8048 5.48418 40.2502 6.61696 41.383C7.74976 42.5158 9.19528 43.1574 10.8392 43.5226C12.4604 43.883 14.3911 44 16.624 44H31.376C33.6088 44 35.5396 43.883 37.1608 43.5226C38.8048 43.1574 40.2502 42.5158 41.383 41.383C42.5158 40.2502 43.1574 38.8048 43.5226 37.1608C43.883 35.5396 44 33.6088 44 31.376V20.624C44 18.3911 43.883 16.4604 43.5226 14.8392C43.1574 13.1953 42.5158 11.7498 41.383 10.617C40.4472 9.6812 39.2982 9.08068 38 8.69416V6C38 4.89544 37.1046 4 36 4C34.8954 4 34 4.89544 34 6V8.06954C33.1778 8.02016 32.303 8 31.376 8H16.624C15.6971 8 14.8223 8.02016 14 8.06954V6C14 4.89544 13.1046 4 12 4C10.8954 4 10 4.89544 10 6ZM12 18C12 16.8954 12.8954 16 14 16H34C35.1046 16 36 16.8954 36 18C36 19.1046 35.1046 20 34 20H14C12.8954 20 12 19.1046 12 18Z" fill="#00644F"/>
</svg>
