<svg width="48" height="48" viewBox="0 0 48 48" fill="none" xmlns="http://www.w3.org/2000/svg">
<path d="M28 26.4C28.8056 26.4 40 18.9752 40 11.5496C40 7.82165 37.016 4.80005 33.3328 4.80005C31.1488 4.80005 29.216 5.86885 28 7.51285C26.784 5.86885 24.8512 4.80005 22.6672 4.80005C18.9848 4.80005 16 7.82165 16 11.5504C16 18.9752 27.1944 26.4 28 26.4Z" fill="#00513F"/>
<path d="M32.2895 34.9264C33.0639 34.5288 33.5999 33.7304 33.5999 32.8C33.5999 31.564 32.6727 30.404 31.4647 30.4C27.0127 30.3848 23.0879 28.8336 19.9999 28.8C12.7999 28.8 12.7319 32.8 8.96233 32.8H8.79993V41.6H10.2727C10.8903 41.6 11.5071 41.6424 12.1191 41.7248L28.1879 43.916C28.5951 43.972 29.0063 44 29.4183 44C31.5999 44 33.7087 43.2168 35.3623 41.7936L45.7183 32.3033C46.1391 31.9409 46.3999 31.3992 46.3999 30.8C46.3999 29.6952 45.5047 28.8 44.3999 28.8C44.0647 28.8 43.7495 28.8832 43.4719 29.028L32.2895 34.9264Z" fill="#00513F"/>
<path d="M5.59998 42.4H2.39998C1.95758 42.4 1.59998 42.0424 1.59998 41.6V32.8C1.59998 32.3576 1.95758 32 2.39998 32H5.59998C6.04238 32 6.39998 32.3576 6.39998 32.8V41.6C6.39998 42.0424 6.04238 42.4 5.59998 42.4Z" fill="#00513F"/>
</svg>
