<svg width="200" height="200" viewBox="0 0 200 200" fill="none" xmlns="http://www.w3.org/2000/svg">
<rect width="200" height="200" fill="white"/>
<path fill-rule="evenodd" clip-rule="evenodd" d="M43.8804 112.76V106.742C41.4928 107.38 40.1872 107.506 39.2156 107.506C36.4002 107.506 35.873 106.09 35.873 104.858C35.873 103.626 36.425 102.21 39.0279 102.21C40.5184 102.21 42.2077 102.434 43.8804 102.887V96.1302C41.6639 95.3856 39.4337 95.0385 37.8245 95.0385C34.1782 95.0385 32.1577 96.4129 31.0591 97.8013C29.7811 99.4108 29 101.77 29 104.642C29 109.205 31.1226 113.815 37.6147 113.815C39.7815 113.815 41.8489 113.457 43.8804 112.76ZM45.8236 117.227C46.9884 117.631 48.1808 118 49.2049 118C52.5972 118 54.0905 116.872 54.7253 116.027C55.2939 115.279 55.7025 114.495 55.7025 111.59V95.5199H48.5562L48.4651 110.118V110.523C48.4651 112.483 47.8027 113.311 46.1548 113.311C46.0555 113.311 45.9506 113.311 45.8236 113.306V117.225V117.227ZM57.3503 113.367H63.8369V104.623L66.0975 113.367H69.7465L72.0403 104.623V113.367H78.5158V95.5199H70.5083L67.9441 103.951L65.3467 95.5199H57.3476V113.367H57.3503ZM87.0283 103.909V100.234H88.0385C89.9569 100.234 90.1087 100.438 90.3185 100.603C90.7933 100.967 90.9534 101.407 90.9534 102.039C90.9534 102.798 90.6718 103.36 90.1667 103.654C90.0231 103.738 89.6671 103.909 88.4029 103.909H87.0228H87.0283ZM80.4093 113.367H87.0173V107.705L90.1529 113.373H98.1907L93.5093 105.899C94.6521 105.899 95.7727 105.267 96.3579 104.55C97.0617 103.688 97.5586 102.252 97.5586 100.771C97.5586 99.5591 97.2301 98.3527 96.736 97.5353C95.8086 96.0266 94.5306 95.5171 91.326 95.5171H80.4093V113.365V113.367ZM111.84 113.367H118.622V95.5199H112.215L109.16 98.7614V103.57L111.84 102.286V113.365V113.367ZM122.856 112.623C125.028 113.432 127.198 113.821 129.31 113.821C135.39 113.821 136.812 110.686 136.812 107.853C136.812 105.555 135.633 103.4 131.915 103.582L136.296 99.9762V95.5199H122.784V101.138H128.048L123.866 104.752V106.092C124.661 106.022 125.6 105.978 126.406 105.978C129.061 105.978 129.213 106.904 129.213 107.464C129.213 108.077 128.909 109.04 126.693 109.04C125.696 109.04 124.543 108.889 122.519 108.178L122.851 112.62L122.856 112.623ZM138.498 113.373H152.973V109.079L147.466 109.073C149.136 108.195 153.324 105.289 153.329 101.58C153.329 97.9608 151.496 95.0245 146.365 95.0245C140.287 95.0245 138.156 98.2995 138.156 103.206C138.156 103.332 138.156 103.47 138.162 103.596H143.428C143.456 101.628 144.212 101.031 145.09 101.031C145.967 101.031 146.489 101.731 146.489 102.487C146.489 102.868 146.453 103.335 145.772 104.074C143.911 106.104 141.512 107.425 139.384 109.104C139.075 109.345 138.777 109.583 138.498 109.801V113.376V113.373ZM160.903 104.841C160.903 102.526 161.819 101.552 162.995 101.552C164.171 101.552 165.096 102.568 165.096 104.726C165.096 107.24 164.155 108.122 163.048 108.122H162.987C161.864 108.169 160.906 107.209 160.906 104.841H160.903ZM162.694 113.826C162.788 113.826 162.89 113.821 162.984 113.821C165.78 113.955 167.635 112.973 168.772 111.727C170.078 110.297 171 108.094 171 104.516C171 95.8726 166.136 95.0777 162.918 95.0777C159.7 95.0777 158.248 95.9958 157.204 97.1323C155.99 98.4591 154.999 100.757 154.999 104.416C154.999 110.537 157.536 113.829 162.692 113.829L162.694 113.826ZM48.5093 93.8321L52.1335 90.9853L55.7604 93.8321L54.3251 89.2946L58.0017 86.5206L53.4915 86.5654L52.1362 82L50.781 86.5654L46.2708 86.5206L49.9474 89.2946L48.5093 93.8321Z" fill="#00467F"/>
</svg>
