<svg width="48" height="48" viewBox="0 0 48 48" fill="none" xmlns="http://www.w3.org/2000/svg">
<path d="M12.8 26.3996C15.451 26.3996 17.6 24.2505 17.6 21.5996C17.6 18.9486 15.451 16.7996 12.8 16.7996C10.149 16.7996 8 18.9486 8 21.5996C8 24.2505 10.149 26.3996 12.8 26.3996Z" fill="#00513F"/>
<path d="M38.388 44.4071L41.5464 32.4071C41.8136 31.3927 41.0488 30.3999 39.9984 30.3999H23.9584C23.2312 30.3999 22.5968 30.8895 22.4104 31.5927L19.2528 43.5927C18.9856 44.6071 19.7512 45.5999 20.8008 45.5999H36.8408C37.568 45.5999 38.2032 45.1103 38.388 44.4071Z" fill="#00513F"/>
<path d="M16.4696 41.5996H9.2C8.5376 41.5996 8 41.062 8 40.3996C8 39.7372 8.5376 39.1996 9.2 39.1996H17.1016L19.1288 31.494C17.4168 29.7196 14.9712 28.658 12.2768 28.8148C7.5768 29.0876 4 33.178 4 37.886V41.5996C4 43.8092 5.7904 45.5996 8 45.5996H15.4168L16.4696 41.5996Z" fill="#00513F"/>
<path d="M44 17.6C44 18.4832 43.2832 19.2 42.4 19.2H36.4L30.7096 22.9936C30.508 23.128 30.2704 23.2 30.028 23.2C29.3504 23.2 28.8 22.6504 28.8 21.972V19.2H25.6C24.7168 19.2 24 18.4832 24 17.6V4.79995C24 3.91675 24.7168 3.19995 25.6 3.19995H42.4C43.2832 3.19995 44 3.91675 44 4.79995V17.6Z" fill="#00513F"/>
</svg>
