<svg width="48" height="48" viewBox="0 0 48 48" fill="none" xmlns="http://www.w3.org/2000/svg">
<path d="M42 15.9998C43.0608 15.9998 44.0782 16.4212 44.8284 17.1714C45.5786 17.9215 46 18.9389 46 19.9998V27.9998C46 29.0608 45.5786 30.0782 44.8284 30.8282C44.0782 31.5784 43.0608 31.9998 42 31.9998H39.876C39.3884 35.8664 37.5066 39.4222 34.5834 41.9998C31.6604 44.5774 27.8972 45.9998 24 45.9998V41.9998C27.1826 41.9998 30.2348 40.7356 32.4852 38.4852C34.7358 36.2346 36 33.1824 36 29.9998V17.9998C36 14.8172 34.7358 11.765 32.4852 9.51451C30.2348 7.26407 27.1826 5.99979 24 5.99979C20.8174 5.99979 17.7652 7.26407 15.5147 9.51451C13.2643 11.765 12 14.8172 12 17.9998V31.9998H6C4.93914 31.9998 3.92172 31.5784 3.17158 30.8282C2.42142 30.0782 2 29.0608 2 27.9998V19.9998C2 18.9389 2.42142 17.9215 3.17158 17.1714C3.92172 16.4212 4.93914 15.9998 6 15.9998H8.124C8.61206 12.1336 10.4942 8.57835 13.4171 6.00115C16.3401 3.42395 20.1032 2.00195 24 2.00195C27.8968 2.00195 31.6598 3.42395 34.5828 6.00115C37.5058 8.57835 39.388 12.1336 39.876 15.9998H42ZM15.52 31.5698L17.64 28.1778C19.5462 29.372 21.7508 30.0034 24 29.9998C26.2492 30.0034 28.4538 29.372 30.36 28.1778L32.48 31.5698C29.9386 33.1622 26.999 34.0044 24 33.9998C21.001 34.0044 18.0615 33.1622 15.52 31.5698Z" fill="#00513F"/>
</svg>
