<svg width="48" height="48" viewBox="0 0 48 48" fill="none" xmlns="http://www.w3.org/2000/svg">
<path d="M25.6 32.636V35.2001H22.4V32.6313C19.9 32.1089 17.964 30.3929 17.6472 28.2329L20.8128 27.7673C20.9424 28.6488 22.1976 29.6 24 29.6C25.8856 29.6 27.2 28.5465 27.2 27.6C27.2 26.6537 25.8856 25.6 24 25.6C20.4112 25.6 17.6 23.316 17.6 20.4C17.6 17.936 19.6112 15.928 22.4 15.364V12.8H25.6V15.3688C28.1 15.8912 30.036 17.6072 30.3528 19.7672L27.1872 20.2328C27.0576 19.3512 25.8024 18.4 24 18.4C22.1144 18.4 20.8 19.4536 20.8 20.4C20.8 21.3464 22.1144 22.4 24 22.4C27.5888 22.4 30.4 24.684 30.4 27.6C30.4 30.0641 28.3888 32.072 25.6 32.636Z" fill="#00513F"/>
<path d="M46.4 22.4001H43.128C42.3552 13.0873 34.9128 5.6449 25.6 4.8721V1.6001H22.4V4.8721C13.0872 5.6449 5.64478 13.0873 4.87198 22.4001H1.59998V25.6001H4.87198C5.64478 34.9129 13.0872 42.3553 22.4 43.1281V46.4001H25.6V43.1281C34.9128 42.3553 42.3552 34.9129 43.128 25.6001H46.4V22.4001ZM25.6 39.9185V37.6001H22.4V39.9185C14.852 39.1657 8.83438 33.1481 8.08158 25.6001H10.4V22.4001H8.08158C8.83438 14.8521 14.852 8.8345 22.4 8.0817V10.4001H25.6V8.0817C33.148 8.8345 39.1656 14.8521 39.9184 22.4001H37.6V25.6001H39.9184C39.1656 33.1481 33.148 39.1657 25.6 39.9185Z" fill="#00513F"/>
</svg>
