<svg width="200" height="200" viewBox="0 0 200 200" fill="none" xmlns="http://www.w3.org/2000/svg">
<rect width="200" height="200" fill="white"/>
<g clip-path="url(#clip0_181_3404)">
<path d="M56.9246 75H143.073C147.739 75 151.528 78.7884 151.528 83.4548V125.001H56.9246C52.2581 125.001 48.4697 121.213 48.4697 116.547V83.4548C48.4697 78.7884 52.2581 75 56.9246 75Z" fill="#0060F0"/>
<path d="M85.5241 87.1016H80.7004C79.1372 87.1016 77.8407 87.3559 76.8108 87.8661C75.7796 88.3762 75.011 89.1462 74.5008 90.176C73.9907 91.2073 73.7363 92.4915 73.7363 94.0315V104.086H78.2879V94.3036C78.2879 94.1942 78.3002 94.0793 78.3207 93.9603C78.5641 92.6118 79.7773 91.6545 81.1476 91.6545H85.5228V87.1029L85.5241 87.1016Z" fill="#25FB95"/>
<path d="M98.4314 87.326C97.3222 86.8214 96.1105 86.5684 94.792 86.5684C93.2329 86.5684 91.7846 86.9417 90.4456 87.6885C89.1067 88.4352 88.0358 89.4883 87.2344 90.8491C86.4329 92.2099 86.0322 93.7472 86.0322 95.4595C86.0322 97.1718 86.4165 98.7418 87.1852 100.037C87.9538 101.332 89.0506 102.332 90.4785 103.034C91.9049 103.735 93.5516 104.087 95.4184 104.087C96.6479 104.087 97.794 103.939 98.8594 103.642C99.9235 103.345 100.84 102.913 101.608 102.342V97.9951C99.9399 99.2684 97.9417 99.9043 95.6154 99.9043C94.5171 99.9043 93.568 99.7293 92.7665 99.3778C91.9651 99.0263 91.351 98.5162 90.923 97.846C90.7137 97.5192 90.5578 97.1622 90.4497 96.7752H102.991V94.4542C102.991 92.7584 102.473 91.0898 101.444 89.7413C101.39 89.6702 101.335 89.6004 101.279 89.5307C100.488 88.5651 99.5392 87.8293 98.43 87.3247L98.4314 87.326ZM90.7192 93.1208C90.7479 93.0538 90.7752 92.9881 90.8067 92.9225C91.1582 92.1976 91.6738 91.6328 92.3549 91.2266C93.0346 90.8204 93.8579 90.618 94.8249 90.618C95.7918 90.618 96.663 90.8491 97.3769 91.31C98.0197 91.7258 98.5148 92.3303 98.8635 93.1208H90.7192Z" fill="#25FB95"/>
<path d="M85.5244 108.879V111.049H88.2064V118.197H91.7883V106.663H88.9668C88.4402 107.887 87.5253 108.741 85.5258 108.88L85.5244 108.879Z" fill="#25FB95"/>
<path d="M102.453 106.461H101.77C94.9484 106.461 93.9883 110.12 93.9883 112.166V112.631C93.9883 114.647 94.9497 118.398 101.77 118.398H102.453C109.305 118.398 110.235 114.647 110.235 112.631V112.166C110.235 110.12 109.29 106.461 102.453 106.461ZM106.453 112.491C106.453 113.81 105.631 115.577 102.112 115.577C98.5932 115.577 97.7712 113.763 97.7712 112.461V112.275C97.7712 110.958 98.5152 109.268 102.112 109.268C105.709 109.268 106.453 110.958 106.453 112.275V112.493V112.491Z" fill="#25FB95"/>
<path d="M120.063 110.336H119.924C117.134 110.336 116.017 111.22 115.816 111.406V109.343H124.869V106.661H112.265V113.746H115.784C115.846 113.621 116.125 112.816 118.916 112.816C121.551 112.816 121.892 113.591 121.892 114.226V114.319C121.892 114.955 121.551 115.729 118.916 115.729C116.126 115.729 115.877 114.752 115.831 114.581H112.018V114.689C112.018 115.82 112.762 118.394 118.559 118.394H119.288C124.559 118.394 125.675 116.177 125.675 114.302V114.209C125.675 112.1 124.637 110.333 120.063 110.333V110.336Z" fill="#25FB95"/>
<path d="M131.041 115.483H127.305V118.197H131.041V115.483Z" fill="#25FB95"/>
<path d="M130.405 111.638H134.064V109.266H140.575C140.497 109.499 140.002 109.979 138.312 111.576C135.97 113.808 135.304 114.894 135.304 116.739V118.197H139.443V118.057C139.443 116.197 139.551 114.817 141.319 112.461C142.497 110.911 143.691 109.655 144.187 109.097V106.662H130.405V111.639V111.638Z" fill="#25FB95"/>
<path d="M63.7249 104.087C61.4642 104.087 59.5002 103.27 57.8905 101.659C56.2794 100.048 55.4629 98.0856 55.4629 95.8235C55.4629 93.5614 56.2794 91.6002 57.8905 89.9891C59.5016 88.378 61.4655 87.5615 63.7249 87.5615H67.1536C67.2794 87.5615 67.382 87.459 67.382 87.3331V81.1924H71.9882V95.8249C71.9882 98.0856 71.1718 100.048 69.5593 101.661C67.9482 103.272 65.9856 104.088 63.7249 104.088V104.087ZM63.7249 91.778C62.6431 91.778 61.6994 92.1883 60.9198 92.9966C60.1416 93.8021 59.7464 94.7581 59.7464 95.8372C59.7464 96.9163 60.1416 97.86 60.9226 98.6395C61.7021 99.4191 62.6444 99.8157 63.7249 99.8157C64.8053 99.8157 65.7476 99.4205 66.5272 98.6395C67.3068 97.86 67.7034 96.9163 67.7034 95.8372V92.0064C67.7034 91.8806 67.6008 91.778 67.475 91.778H63.7249Z" fill="#25FB95"/>
<path d="M63.7249 104.087C61.4642 104.087 59.5002 103.27 57.8905 101.659C56.2794 100.048 55.4629 98.0856 55.4629 95.8235C55.4629 93.5614 56.2794 91.6002 57.8905 89.9891C59.5016 88.378 61.4655 87.5615 63.7249 87.5615H67.1536C67.2794 87.5615 67.382 87.459 67.382 87.3331V81.1924H71.9882V95.8249C71.9882 98.0856 71.1718 100.048 69.5593 101.661C67.9482 103.272 65.9856 104.088 63.7249 104.088V104.087ZM63.7249 91.778C62.6431 91.778 61.6994 92.1883 60.9198 92.9966C60.1416 93.8021 59.7464 94.7581 59.7464 95.8372C59.7464 96.9163 60.1416 97.86 60.9226 98.6395C61.7021 99.4191 62.6444 99.8157 63.7249 99.8157C64.8053 99.8157 65.7476 99.4205 66.5272 98.6395C67.3068 97.86 67.7034 96.9163 67.7034 95.8372V92.0064C67.7034 91.8806 67.6008 91.778 67.475 91.778H63.7249Z" fill="#25FB95"/>
<path d="M110.291 91.4337C110.611 91.2026 111.024 91.0863 111.531 91.0863C111.884 91.0863 112.204 91.152 112.491 91.2847C112.777 91.4173 113.004 91.632 113.17 91.9302C113.335 92.2283 113.417 92.5976 113.417 93.038V93.6001H111.035C109.8 93.6001 108.687 93.8203 107.694 94.262C106.701 94.7038 105.924 95.337 105.362 96.1644C104.8 96.9919 104.518 97.9793 104.518 99.1254C104.518 100.846 105.064 102.192 106.155 103.161C107.246 104.131 108.674 104.087 110.439 104.087H117.585V93.1706C117.585 91.8919 117.33 90.7841 116.824 89.8459C116.317 88.909 115.606 88.2033 114.691 87.7288C113.776 87.2542 112.71 87.0176 111.499 87.0176C109.623 87.0176 108.068 87.525 106.833 88.5398C105.598 89.5546 104.771 90.8662 104.353 92.4759H109.547C109.723 92.0122 109.971 91.6649 110.291 91.4337ZM112.557 100.481C112.16 100.877 111.642 101.076 111.002 101.076C110.362 101.076 109.849 100.872 109.463 100.464C109.078 100.057 108.885 99.5439 108.885 98.9257C108.885 98.3076 109.083 97.7673 109.48 97.3707C109.876 96.9741 110.395 96.7758 111.035 96.7758C111.675 96.7758 112.159 96.9741 112.557 97.3707C112.954 97.7673 113.152 98.2857 113.152 98.9257C113.152 99.5658 112.954 100.084 112.557 100.481Z" fill="#25FB95"/>
<path d="M143.328 90.1259C142.807 89.107 142.031 88.348 141.001 87.8501C139.97 87.3523 138.697 87.1034 137.18 87.1034H119.55V104.088H124.101V91.6549H127.845C127.946 91.6549 128.047 91.6673 128.144 91.6891C128.159 91.6919 128.173 91.696 128.188 91.6987C128.203 91.7028 128.219 91.7069 128.234 91.711C128.983 91.9025 129.535 92.5781 129.535 93.3864V104.088H134.107L133.888 91.6549H137.865C138.014 91.6549 138.162 91.6796 138.302 91.7261C139.018 91.938 139.542 92.6 139.542 93.385V93.8418C139.552 93.9581 139.557 94.0784 139.557 94.2029V104.088H144.109V93.9307C144.109 92.414 143.848 91.1448 143.328 90.1259Z" fill="#25FB95"/>
</g>
<defs>
<clipPath id="clip0_181_3404">
<rect width="103.057" height="50" fill="white" transform="translate(48.4717 75)"/>
</clipPath>
</defs>
</svg>
