<svg width="63" height="16" viewBox="0 0 63 16" fill="none" xmlns="http://www.w3.org/2000/svg">
<path d="M37.7109 8.66651L37.4636 8.80074C36.1652 9.62725 34.9583 11.5704 36.6629 12.6918C36.6746 12.6994 36.6892 12.6894 36.6828 12.717C36.2391 12.6402 35.8158 12.5112 35.4319 12.2732C34.2455 11.5382 34.0192 9.99067 34.1705 8.70343C34.3469 7.20341 35.1341 6.33294 36.6388 6.10375C37.6406 5.95134 38.9759 6.03986 39.8165 6.65768C40.7397 7.33647 40.9355 8.56979 40.8968 9.64893C40.8423 11.1724 40.051 12.4837 38.4472 12.6947C36.987 12.887 35.5468 12.0634 36.2877 10.4332C36.6037 9.73862 37.1752 9.19113 37.7109 8.66651ZM37.3921 10.7357C37.5175 10.8817 37.3504 10.9842 37.2256 11.0352C36.9911 11.1302 36.5732 11.1583 36.5814 11.51C36.5949 12.0693 37.5878 12.0904 37.9689 12.0329C39.5644 11.792 39.8728 9.89689 39.6313 8.57272C39.3909 7.25558 38.5275 6.48945 37.1476 6.67292C35.3305 6.91501 35.0585 9.24389 35.5304 10.6683C35.5403 10.6982 35.5474 10.7451 35.5738 10.7621C35.6119 10.6062 35.65 10.4491 35.6652 10.289C35.6863 10.0645 35.6711 9.83827 35.6857 9.61728C35.6945 9.48774 35.7162 9.30309 35.892 9.33943C35.9595 9.3535 36.062 9.4596 36.1107 9.31892C36.1564 9.18703 36.0925 8.90039 36.0831 8.7515C36.0702 8.54751 36.0767 7.89158 36.4419 8.03695C36.5773 8.09088 36.7314 8.53638 36.8915 8.31832C36.9694 8.21222 37.0181 7.92558 37.0703 7.78431C37.1341 7.61139 37.2485 7.37458 37.4548 7.34468C37.7989 7.29486 37.6922 7.738 37.7649 7.93496C37.8124 8.06333 37.956 7.97482 38.0345 7.92441C38.2098 7.81128 38.3516 7.58443 38.5492 7.51291C38.6817 7.46485 38.8294 7.4795 38.8962 7.61784C39.0363 7.90858 38.6277 8.22922 38.497 8.45841C38.3997 8.63016 38.4612 8.74447 38.6453 8.79429C38.8294 8.84412 39.1318 8.81481 39.174 9.05924C39.2426 9.45608 38.5773 9.46605 38.334 9.54753C38.2549 9.5739 38.123 9.63252 38.1177 9.72865C38.1066 9.93088 38.5644 9.93147 38.4589 10.2011C38.3639 10.4432 37.7549 10.4543 37.5357 10.4995C37.4624 10.5147 37.3194 10.5458 37.3235 10.6437C37.3258 10.7005 37.3669 10.7046 37.3921 10.7339V10.7357Z" fill="white"/>
<path d="M3.52873 10.5006L5.24036 3.18518H6.94027L8.72224 10.442L10.4104 3.18518H12.0986L9.62495 12.5874H7.83125L6.04928 5.28369L4.37282 12.5874H2.57913L0.105469 3.18518H1.84055L3.52873 10.5006Z" fill="white"/>
<path d="M12.8489 3.18518H14.3612V6.97187C14.795 6.44431 15.5922 6.09261 16.5301 6.09261C17.8666 6.09261 18.8513 6.78429 18.8513 8.16767V12.5874H17.339V8.57799C17.339 7.52287 16.7997 7.15945 16.0025 7.15945C15.1467 7.15945 14.3612 7.61666 14.3612 8.39041V12.5874H12.8489V3.18518Z" fill="white"/>
<path d="M21.5712 6.25676H20.0589V12.5874H21.5712V6.25676Z" fill="white"/>
<path d="M25.9435 12.5874C25.5449 12.6109 25.1814 12.6226 24.7594 12.6226C23.716 12.6226 23.4112 11.8723 23.4112 11.1689V7.31187H22.485V6.25675H23.4112V4.20514L24.9235 3.81827V6.25675H25.9435V7.31187H24.9235V10.8055C24.9235 11.4151 25.1346 11.5558 25.3925 11.5558C25.5683 11.5558 25.7793 11.5441 25.9435 11.5441V12.5874Z" fill="white"/>
<path d="M30.0467 12.7633C27.9716 12.7633 26.8227 11.7082 26.8227 9.59795V9.24624C26.8227 7.13601 28.0185 6.06917 30.0936 6.06917C32.1687 6.06917 33.2355 7.08912 33.2355 9.02349V9.66829H28.4406V9.71518C28.4406 11.1572 29.0971 11.7902 30.0467 11.7902C30.9963 11.7902 31.3949 11.3682 31.5473 10.5241L33.2003 10.7586C33.0362 11.9192 32.0514 12.7633 30.0467 12.7633ZM28.4523 8.7773H31.6411C31.5942 7.61667 30.9846 7.05395 30.0819 7.05395C29.2378 7.05395 28.5578 7.5815 28.4523 8.7773Z" fill="white"/>
<path d="M45.8687 11.7404C45.3464 12.4368 44.4877 12.7269 43.5012 12.7269C41.9806 12.7269 41.2725 11.9491 41.2725 10.8934C41.2725 9.46605 42.3517 8.73451 44.592 8.4678L45.857 8.32829C45.8107 7.50412 45.3927 7.24914 44.5105 7.24914C43.6284 7.24914 43.0017 7.52757 42.3751 7.88748L41.7602 6.98243C42.4683 6.54163 43.4314 6.18171 44.6272 6.18171C46.4144 6.18171 47.3312 6.86637 47.3312 8.22453V11.3236C47.3312 11.6372 47.401 11.7416 47.6214 11.7416H47.9578V12.5886H46.5768C46.1126 12.5886 45.8687 12.3911 45.8687 11.7879V11.7404ZM44.0815 11.8096C44.9285 11.8096 45.8687 11.2639 45.8687 10.3353V9.10497L44.8359 9.24448C43.5475 9.41857 42.8282 9.88282 42.8282 10.765C42.8282 11.4731 43.3388 11.8096 44.0815 11.8096Z" fill="white"/>
<path d="M52.6813 8.50181L54.8865 12.5874H53.1455L51.5089 9.4772L50.3483 10.6378V12.5874H48.8741V3.27958H50.3483V8.9432L52.8554 6.32006H54.6772L52.6807 8.50181H52.6813Z" fill="white"/>
<path d="M61.131 10.7539C61.131 11.8799 60.4112 12.7615 58.1251 12.7615C56.2915 12.7615 55.2118 12.0769 55.0611 10.928V10.8465L56.5934 10.6144L56.628 10.8002C56.6977 11.4503 57.3824 11.7984 58.2646 11.7984C59.1468 11.7984 59.6339 11.4737 59.6339 10.9162C59.6339 10.3588 59.332 9.99947 57.9275 9.7902C55.8038 9.52349 55.2118 8.8617 55.2118 7.92148C55.2118 6.92322 56.1286 6.13423 57.9627 6.13423C59.7968 6.13423 60.8062 6.81888 60.8877 7.72452V7.806L59.4023 8.01468L59.3789 7.87517C59.3091 7.36461 58.7288 7.09732 57.9281 7.09732C57.1274 7.09732 56.7095 7.41092 56.7095 7.80542C56.7095 8.26967 57.162 8.5481 58.6245 8.75736C60.5049 8.98949 61.1316 9.73217 61.1316 10.7533L61.131 10.7539Z" fill="white"/>
<path d="M20.6439 3.83058C20.1063 3.89154 19.9739 4.40269 20.0811 4.86694C20.2359 5.53694 21.4135 5.52697 21.5601 4.85346C21.7125 4.15356 21.3526 3.75028 20.6439 3.83058Z" fill="white"/>
</svg>
