<svg width="873" height="449" viewBox="0 0 873 449" fill="none" xmlns="http://www.w3.org/2000/svg">
<path d="M36.3367 226.074H0C0 226.074 8.13538 138.758 18.1717 138.758C28.2081 138.758 36.3367 226.074 36.3367 226.074ZM90.8451 1.75108C80.8088 1.75108 72.6734 226.074 72.6734 226.074H109.017C109.017 226.074 100.881 1.75108 90.8451 1.75108ZM36.3367 226.074C36.3367 226.074 44.4721 349.767 54.5084 349.767C64.5448 349.767 72.6734 226.074 72.6734 226.074H36.3367ZM181.697 224.677H218.034C218.034 224.677 209.898 311.993 199.862 311.993C189.826 311.993 181.697 224.677 181.697 224.677ZM127.189 449C137.225 449 145.36 224.677 145.36 224.677H109.017C109.017 224.677 117.152 449 127.189 449ZM181.697 224.677C181.697 224.677 173.562 100.984 163.525 100.984C153.489 100.984 145.36 224.677 145.36 224.677H181.697ZM254.37 225.372H218.034C218.034 225.372 226.169 138.056 236.205 138.056C246.242 138.056 254.37 225.372 254.37 225.372ZM308.879 1.04928C298.842 1.04928 290.707 225.372 290.707 225.372H327.051C327.051 225.372 318.915 1.04928 308.879 1.04928ZM254.37 225.372C254.37 225.372 262.506 349.065 272.542 349.065C282.579 349.065 290.707 225.372 290.707 225.372H254.37ZM399.731 223.975H436.067C436.067 223.975 427.932 311.291 417.896 311.291C407.859 311.291 399.731 223.975 399.731 223.975ZM345.222 448.298C355.259 448.298 363.394 223.975 363.394 223.975H327.051C327.051 223.975 335.186 448.298 345.222 448.298ZM399.731 223.975C399.731 223.975 391.595 100.282 381.559 100.282C371.523 100.282 363.394 223.975 363.394 223.975H399.731ZM472.404 225.024H436.067C436.067 225.024 444.203 137.709 454.239 137.709C464.269 137.709 472.404 225.024 472.404 225.024ZM526.913 0.701787C516.876 0.701787 508.741 225.024 508.741 225.024H545.084C545.084 225.024 536.949 0.701787 526.913 0.701787ZM472.404 225.024C472.404 225.024 480.54 348.718 490.576 348.718C500.612 348.718 508.741 225.024 508.741 225.024H472.404ZM617.765 223.628H654.101C654.101 223.628 645.966 310.943 635.929 310.943C625.9 310.943 617.765 223.628 617.765 223.628ZM563.256 447.95C573.292 447.95 581.428 223.628 581.428 223.628H545.084C545.084 223.628 553.22 447.95 563.256 447.95ZM617.765 223.628C617.765 223.628 609.629 99.9344 599.593 99.9344C589.556 99.9344 581.428 223.628 581.428 223.628H617.765ZM690.438 224.323H654.101C654.101 224.323 662.237 137.007 672.273 137.007C682.303 137.007 690.438 224.323 690.438 224.323ZM744.946 0C734.91 0 726.775 224.323 726.775 224.323H763.118C763.118 224.323 754.983 0 744.946 0ZM690.438 224.323C690.438 224.323 698.573 348.016 708.61 348.016C718.646 348.016 726.775 224.323 726.775 224.323H690.438ZM835.798 222.926H872.135C872.135 222.926 864 310.242 853.963 310.242C843.934 310.248 835.798 222.926 835.798 222.926ZM781.29 447.249C791.326 447.249 799.462 222.926 799.462 222.926H763.118C763.118 222.926 771.253 447.249 781.29 447.249ZM835.798 222.926C835.798 222.926 827.663 99.2326 817.627 99.2326C807.59 99.2326 799.462 222.926 799.462 222.926H835.798Z" fill="#00644F"/>
</svg>
