<svg width="200" height="200" viewBox="0 0 200 200" fill="none" xmlns="http://www.w3.org/2000/svg">
<rect width="200" height="200" fill="black"/>
<path d="M35 89.2685H39.8306V106.225H45.0642V110.731H35V89.2685Z" fill="#C6A987"/>
<path d="M46.0033 89.2685H56.6039V93.7754H50.8339V97.2099H55.7989V101.717H50.8339V106.224H56.6039V110.731H46.0033V89.2685Z" fill="#C6A987"/>
<path d="M66.8024 109.203C65.7468 110.401 64.4225 111 62.8305 111C61.2384 111 59.9003 110.522 59.0327 109.565C58.1642 108.608 57.7312 107.226 57.7312 105.42V94.5273C57.7312 92.8283 58.2725 91.4825 59.355 90.4898C60.4375 89.4971 61.9091 89.0008 63.7697 89.0008C65.6304 89.0008 67.1019 89.4971 68.1845 90.4898C69.267 91.4825 69.8082 92.8283 69.8082 94.5273V96.2441H64.9776V95.2514C64.9776 94.6794 64.8791 94.2547 64.6821 93.9772C64.4852 93.6998 64.1808 93.5614 63.7697 93.5614C63.3587 93.5614 63.0543 93.7006 62.8573 93.9772C62.6604 94.2547 62.5619 94.6794 62.5619 95.2514V104.347C62.5619 105.062 62.6823 105.59 62.9241 105.929C63.1658 106.269 63.5459 106.439 64.0644 106.439C64.6187 106.439 65.0126 106.251 65.2454 105.876V102.791H63.7697V98.284H69.8082V110.732H67.5268L66.8024 109.203Z" fill="#C6A987"/>
<path d="M71.1489 89.2685H81.7495V93.7754H75.9796V97.2099H80.9445V101.717H75.9796V106.224H81.7495V110.731H71.1489V89.2685Z" fill="#C6A987"/>
<path d="M88.2447 89.2685L91.3311 100.161V89.2685H95.4911V110.731H90.1232L87.0368 99.8389V110.731H82.8769V89.2685H88.2447Z" fill="#C6A987"/>
<path d="M102.873 89.2685C104.733 89.2685 106.205 89.7648 107.287 90.7575C108.37 91.7502 108.911 93.096 108.911 94.7949V105.205C108.911 106.905 108.37 108.25 107.287 109.242C106.205 110.235 104.733 110.731 102.873 110.731H96.834V89.2685H102.873ZM103.785 105.809C103.982 105.532 104.08 105.107 104.08 104.535V95.4662C104.08 94.8942 103.982 94.4695 103.785 94.192C103.588 93.9146 103.284 93.7762 102.873 93.7762H101.665V106.225H102.873C103.284 106.225 103.588 106.086 103.785 105.809Z" fill="#C6A987"/>
<path d="M119.511 110.731H114.949V94.0439L113.741 94.8755L111.863 92.1928L116.05 89.2685H119.512L119.511 110.731Z" fill="#C6A987"/>
<path d="M121.255 94.2856C121.255 92.6583 121.769 91.3702 122.798 90.4223C123.827 89.4744 125.236 89 127.025 89C128.814 89 130.223 89.4744 131.252 90.4223C132.28 91.3702 132.795 92.6583 132.795 94.2856V105.715C132.795 107.343 132.28 108.631 131.252 109.579C130.223 110.526 128.814 111 127.025 111C125.236 111 123.827 110.526 122.798 109.579C121.769 108.631 121.255 107.343 121.255 105.715V94.2856ZM127.937 106.291C128.134 106.015 128.233 105.59 128.233 105.017V94.9829C128.233 94.4109 128.134 93.9862 127.937 93.7087C127.74 93.4312 127.436 93.2929 127.025 93.2929C126.614 93.2929 126.31 93.4321 126.113 93.7087C125.916 93.9862 125.817 94.4109 125.817 94.9829V105.017C125.817 105.59 125.916 106.015 126.113 106.291C126.31 106.569 126.613 106.707 127.025 106.707C127.437 106.707 127.74 106.569 127.937 106.291Z" fill="#C6A987"/>
<path d="M145.463 97.4516C145.32 97.9878 145.087 98.5248 144.765 99.061C144.443 99.5972 143.88 100.456 143.075 101.636L139.773 106.439H145.812V110.731H134.004V107.137L139.773 98.7388C140.364 97.8804 140.735 97.2726 140.887 96.9146C141.039 96.5574 141.115 96.1098 141.115 95.5728V94.9829C141.115 94.4109 141.016 93.9862 140.819 93.7087C140.622 93.4312 140.318 93.2929 139.907 93.2929C139.496 93.2929 139.191 93.4321 138.995 93.7087C138.798 93.9862 138.699 94.4109 138.699 94.9829V96.2441H134.137V94.2856C134.137 92.6583 134.651 91.3702 135.68 90.4223C136.709 89.4744 138.118 89 139.907 89C141.696 89 143.105 89.4744 144.134 90.4223C145.162 91.3702 145.677 92.6583 145.677 94.2856V95.4394C145.677 96.2441 145.606 96.9146 145.463 97.4516Z" fill="#C6A987"/>
<path d="M152.118 110.731H147.019V105.634H152.118V110.731Z" fill="#C6A987"/>
<path d="M160.142 106.291C160.339 106.015 160.437 105.59 160.437 105.017V101.315C159.686 102.049 158.747 102.415 157.619 102.415C156.295 102.415 155.271 101.945 154.547 101.007C153.822 100.068 153.46 98.7754 153.46 97.1294V94.2856C153.46 92.6583 153.975 91.3702 155.003 90.4223C156.032 89.4744 157.441 89 159.23 89C161.019 89 162.428 89.4744 163.457 90.4223C164.486 91.3702 165 92.6583 165 94.2856V105.715C165 107.343 164.486 108.631 163.457 109.579C162.428 110.526 161.019 111 159.23 111C157.441 111 156.032 110.526 155.003 109.579C153.975 108.631 153.46 107.343 153.46 105.715V103.22H158.022V105.017C158.022 105.59 158.121 106.015 158.318 106.291C158.515 106.569 158.818 106.707 159.23 106.707C159.642 106.707 159.945 106.569 160.142 106.291ZM158.317 93.7087C158.12 93.9862 158.021 94.4109 158.021 94.9829V96.4321C158.021 97.0049 158.12 97.4296 158.317 97.7063C158.514 97.9837 158.817 98.122 159.229 98.122C159.641 98.122 159.945 97.9837 160.142 97.7063C160.339 97.4288 160.437 97.0049 160.437 96.4321V94.9829C160.437 94.4109 160.339 93.9862 160.142 93.7087C159.945 93.4312 159.64 93.2929 159.229 93.2929C158.818 93.2929 158.514 93.4321 158.317 93.7087Z" fill="#C6A987"/>
</svg>
