<svg width="48" height="48" viewBox="0 0 48 48" fill="none" xmlns="http://www.w3.org/2000/svg">
<path d="M26.3996 7.20005C26.3996 5.87458 25.3251 4.80005 23.9996 4.80005C22.6741 4.80005 21.5996 5.87458 21.5996 7.20005V9.60005C21.5996 10.9255 22.6741 12 23.9996 12C25.3251 12 26.3996 10.9255 26.3996 9.60005V7.20005Z" fill="#00644F"/>
<path d="M37.5762 13.8175C38.5134 12.8803 38.5134 11.3607 37.5762 10.4234C36.639 9.48615 35.1194 9.48615 34.1822 10.4234L32.4851 12.1205C31.5479 13.0577 31.5479 14.5773 32.4851 15.5146C33.4223 16.4518 34.942 16.4518 35.8792 15.5146L37.5762 13.8175Z" fill="#00644F"/>
<path d="M43.2 24.0001C43.2 25.3256 42.1255 26.4001 40.8 26.4001H38.4C37.0745 26.4001 36 25.3256 36 24.0001C36 22.6746 37.0745 21.6001 38.4 21.6001H40.8C42.1255 21.6001 43.2 22.6746 43.2 24.0001Z" fill="#00644F"/>
<path d="M12.1207 15.5147C13.058 16.452 14.5776 16.452 15.5148 15.5147C16.4521 14.5774 16.4521 13.0578 15.5148 12.1206L13.8178 10.4235C12.8805 9.48627 11.3609 9.48627 10.4236 10.4235C9.48639 11.3608 9.48639 12.8804 10.4236 13.8176L12.1207 15.5147Z" fill="#00644F"/>
<path d="M11.9998 24.0001C11.9998 25.3256 10.9253 26.4001 9.5998 26.4001H7.1998C5.87433 26.4001 4.7998 25.3256 4.7998 24.0001C4.7998 22.6746 5.87433 21.6001 7.1998 21.6001H9.5998C10.9253 21.6001 11.9998 22.6746 11.9998 24.0001Z" fill="#00644F"/>
<path d="M19.2002 38.4V36H28.8002V38.4C28.8002 41.051 26.6512 43.2 24.0002 43.2C21.3492 43.2 19.2002 41.051 19.2002 38.4Z" fill="#00644F"/>
<path d="M28.8016 33.6C28.8366 32.7833 29.2977 32.0489 29.9437 31.5387C32.1705 29.7807 33.5994 27.0571 33.5994 24C33.5994 18.6981 29.3013 14.4 23.9994 14.4C18.6975 14.4 14.3994 18.6981 14.3994 24C14.3994 27.0571 15.8285 29.7807 18.0551 31.5387C18.7012 32.0489 19.1622 32.7833 19.1973 33.6H28.8016Z" fill="#00644F"/>
</svg>
