<svg width="48" height="48" viewBox="0 0 48 48" fill="none" xmlns="http://www.w3.org/2000/svg">
<path d="M40.7999 2.3999H14.3999C13.5167 2.3999 12.7999 3.1167 12.7999 3.9999V7.1999H32.7999C35.4471 7.1999 37.5999 9.3527 37.5999 11.9999V38.3999H40.7999C41.6831 38.3999 42.3999 37.6831 42.3999 36.7999V3.9999C42.3999 3.1167 41.6831 2.3999 40.7999 2.3999Z" fill="#00513F"/>
<path d="M32.8 10.3999H7.19998C6.31678 10.3999 5.59998 11.1167 5.59998 11.9999V43.9999C5.59998 44.8831 6.31678 45.5999 7.19998 45.5999H32.8C33.6832 45.5999 34.4 44.8831 34.4 43.9999V11.9999C34.4 11.1167 33.6832 10.3999 32.8 10.3999ZM23.2 14.3999H29.6C30.4832 14.3999 31.2 15.1167 31.2 15.9999C31.2 16.8831 30.4832 17.5999 29.6 17.5999H23.2C22.3168 17.5999 21.6 16.8831 21.6 15.9999C21.6 15.1167 22.3168 14.3999 23.2 14.3999ZM14.4 15.9999C16.1672 15.9999 17.6 17.4327 17.6 19.1999C17.6 20.9671 16.1672 22.3999 14.4 22.3999C12.6328 22.3999 11.2 20.9671 11.2 19.1999C11.2 17.4327 12.6328 15.9999 14.4 15.9999ZM19.1936 30.3999H9.60638C9.12238 30.3999 8.73198 29.9695 8.81038 29.4911C9.24398 26.8303 11.6168 24.7999 14.4 24.7999C17.1832 24.7999 19.556 26.8303 19.9896 29.4911C20.0688 29.9695 19.6784 30.3999 19.1936 30.3999ZM21.6 22.3999C21.6 21.5167 22.3168 20.7999 23.2 20.7999H29.6C30.4832 20.7999 31.2 21.5167 31.2 22.3999C31.2 23.2831 30.4832 23.9999 29.6 23.9999H23.2C22.3168 23.9999 21.6 23.2831 21.6 22.3999ZM29.9312 37.1311L25.9312 41.1311C25.6424 41.4207 25.2424 41.5999 24.8 41.5999C24.3576 41.5999 23.9576 41.4207 23.6688 41.1311L21.2688 38.7311C20.9792 38.4415 20.8 38.0415 20.8 37.5999C20.8 36.7167 21.5168 35.9999 22.4 35.9999C22.8424 35.9999 23.2424 36.1791 23.5312 36.4687L24.8 37.7375L27.6688 34.8687C27.9576 34.5791 28.3576 34.3999 28.8 34.3999C29.6832 34.3999 30.4 35.1167 30.4 35.9999C30.4 36.4415 30.2208 36.8415 29.9312 37.1311Z" fill="#00513F"/>
</svg>
