<svg width="49" height="48" viewBox="0 0 49 48" fill="none" xmlns="http://www.w3.org/2000/svg">
<path d="M22.6666 4C30.8026 4 37.5186 10.072 38.5346 17.93L43.0346 25.008C43.3306 25.474 43.2706 26.168 42.5846 26.464L38.6666 28.14V34C38.6666 36.21 36.8766 38 34.6666 38H30.6686L30.6666 44H12.6666V36.612C12.6666 34.252 11.7946 32.018 10.1786 30.002C7.98063 27.262 6.66663 23.784 6.66663 20C6.66663 11.164 13.8306 4 22.6666 4ZM21.6066 15.526C20.2386 14.158 18.0226 14.158 16.6566 15.526C15.2886 16.892 15.2886 19.108 16.6566 20.474L22.6666 26.486L28.6766 20.474C30.0446 19.108 30.0446 16.892 28.6766 15.526C27.3106 14.158 25.0946 14.158 23.7266 15.526L22.6666 16.586L21.6066 15.526Z" fill="#00513F"/>
</svg>
