<svg width="49" height="48" viewBox="0 0 49 48" fill="none" xmlns="http://www.w3.org/2000/svg">
<path d="M24.6666 32C29.0786 32 32.6666 28.412 32.6666 24V12C32.6666 7.56601 29.0966 3.95801 24.7086 3.95801C24.5678 3.95887 24.4276 3.97563 24.2906 4.00801C22.2372 4.10757 20.3005 4.99273 18.8814 6.48033C17.4623 7.96791 16.6693 9.94411 16.6666 12V24C16.6666 28.412 20.2546 32 24.6666 32Z" fill="#00513F"/>
<path d="M22.6666 39.862V44H26.6666V39.862C34.5446 38.872 40.6666 32.146 40.6666 24H36.6666C36.6666 30.618 31.2846 36 24.6666 36C18.0486 36 12.6666 30.618 12.6666 24H8.66663C8.66663 32.144 14.7886 38.872 22.6666 39.862Z" fill="#00513F"/>
</svg>
