<svg width="157" height="40" viewBox="0 0 157 40" fill="none" xmlns="http://www.w3.org/2000/svg">
<path d="M96.3369 16.988L95.7062 17.3313C92.3955 19.4453 89.318 24.4153 93.6644 27.2834C93.6943 27.3029 93.7317 27.2774 93.7153 27.3478C92.5838 27.1514 91.5047 26.8216 90.5257 26.2129C87.5005 24.3328 86.9236 20.3748 87.3092 17.0825C87.7591 13.2459 89.7664 11.0195 93.6032 10.4333C96.1575 10.0435 99.5624 10.2699 101.706 11.8501C104.06 13.5862 104.559 16.7406 104.46 19.5008C104.321 23.3973 102.304 26.7511 98.2142 27.2909C94.491 27.7826 90.8186 25.6762 92.7079 21.5068C93.5135 19.7301 94.9708 18.3298 96.3369 16.988ZM95.5238 22.2804C95.8437 22.6537 95.4177 22.916 95.0993 23.0465C94.5015 23.2894 93.4358 23.3613 93.4567 24.2609C93.4911 25.6912 96.023 25.7451 96.9945 25.5982C101.063 24.982 101.849 20.1349 101.233 16.7481C100.621 13.3793 98.4189 11.4198 94.9005 11.8891C90.2671 12.5083 89.5736 18.4648 90.7768 22.108C90.8022 22.1844 90.8201 22.3044 90.8874 22.3478C90.9845 21.949 91.0817 21.5472 91.1206 21.1379C91.1744 20.5637 91.1355 19.985 91.1729 19.4198C91.1953 19.0885 91.2506 18.6162 91.699 18.7091C91.8709 18.7451 92.1324 19.0165 92.2565 18.6567C92.3731 18.3193 92.2102 17.5862 92.1862 17.2054C92.1534 16.6837 92.1698 15.006 93.101 15.3778C93.4462 15.5157 93.8393 16.6552 94.2474 16.0975C94.4462 15.8261 94.5702 15.093 94.7032 14.7316C94.8662 14.2894 95.1576 13.6837 95.6837 13.6072C96.5611 13.4798 96.2891 14.6132 96.4744 15.1169C96.5955 15.4453 96.9617 15.2189 97.1619 15.09C97.6088 14.8006 97.9706 14.2204 98.4743 14.0375C98.812 13.9145 99.1887 13.952 99.3591 14.3059C99.7163 15.0495 98.6745 15.8696 98.3412 16.4558C98.0931 16.8951 98.2501 17.1874 98.7194 17.3148C99.1887 17.4423 99.9599 17.3673 100.068 17.9925C100.242 19.0075 98.546 19.033 97.9257 19.2414C97.7239 19.3088 97.3876 19.4588 97.3742 19.7047C97.3458 20.2219 98.5131 20.2234 98.2441 20.913C98.0019 21.5322 96.449 21.5607 95.89 21.6762C95.7032 21.7151 95.3385 21.7946 95.3489 22.045C95.3549 22.1904 95.4595 22.2009 95.5238 22.2759V22.2804Z" fill="#152022"/>
<path d="M9.17702 21.6792L13.5414 2.96851H17.8759L22.4197 21.5292L26.7243 2.96851H31.0289L24.7214 27.0165H20.1478L15.604 8.33583L11.3293 27.0165H6.75568L0.448242 2.96851H4.87242L9.17702 21.6792Z" fill="#152022"/>
<path d="M32.9424 2.96851H36.7986V12.6537C37.9046 11.3043 39.9374 10.4048 42.3288 10.4048C45.7366 10.4048 48.2476 12.1739 48.2476 15.7121V27.0165H44.3914V16.7616C44.3914 14.063 43.0164 13.1334 40.9836 13.1334C38.8014 13.1334 36.7986 14.3028 36.7986 16.2819V27.0165H32.9424V2.96851Z" fill="#152022"/>
<path d="M55.1824 10.8246H51.3262V27.0165H55.1824V10.8246Z" fill="#152022"/>
<path d="M66.3312 27.0165C65.3148 27.0765 64.3881 27.1064 63.312 27.1064C60.6515 27.1064 59.8742 25.1874 59.8742 23.3883V13.5232H57.5127V10.8246H59.8742V5.57721L63.7305 4.58771V10.8246H66.3312V13.5232H63.7305V22.4588C63.7305 24.018 64.2685 24.3778 64.9262 24.3778C65.3746 24.3778 65.9127 24.3478 66.3312 24.3478V27.0165Z" fill="#152022"/>
<path d="M76.7938 27.4663C71.5028 27.4663 68.5732 24.7676 68.5732 19.3703V18.4708C68.5732 13.0735 71.6223 10.3448 76.9134 10.3448C82.2045 10.3448 84.9248 12.9535 84.9248 17.9011V19.5502H72.6985V19.6702C72.6985 23.3583 74.3725 24.9775 76.7938 24.9775C79.2152 24.9775 80.2315 23.8981 80.6202 21.7391L84.8351 22.3388C84.4166 25.3074 81.9056 27.4663 76.7938 27.4663ZM72.7284 17.2714H80.8593C80.7397 14.3029 79.1853 12.8636 76.8835 12.8636C74.7312 12.8636 72.9974 14.2129 72.7284 17.2714Z" fill="#152022"/>
<path d="M117.138 24.8501C115.806 26.6312 113.616 27.3733 111.101 27.3733C107.224 27.3733 105.418 25.3838 105.418 22.6837C105.418 19.033 108.17 17.1619 113.882 16.4798L117.108 16.1229C116.99 14.015 115.924 13.3628 113.674 13.3628C111.425 13.3628 109.827 14.075 108.229 14.9955L106.662 12.6807C108.467 11.5532 110.923 10.6327 113.972 10.6327C118.529 10.6327 120.867 12.3838 120.867 15.8576V23.7841C120.867 24.5862 121.045 24.8531 121.607 24.8531H122.465V27.0195H118.943C117.759 27.0195 117.138 26.5142 117.138 24.9715V24.8531V24.8501ZM112.58 25.027C114.74 25.027 117.138 23.6312 117.138 21.2564V18.1095L114.504 18.4663C111.219 18.9116 109.385 20.099 109.385 22.3553C109.385 24.1664 110.687 25.027 112.58 25.027Z" fill="#152022"/>
<path d="M134.509 16.5667L140.131 27.0165H135.692L131.519 19.0615L128.56 22.03V27.0165H124.801V3.20989H128.56V17.6956L134.952 10.9865H139.598L134.507 16.5667H134.509Z" fill="#152022"/>
<path d="M156.054 22.3268C156.054 25.2069 154.219 27.4618 148.39 27.4618C143.714 27.4618 140.961 25.7106 140.577 22.7721V22.5637L144.484 21.97L144.572 22.4453C144.75 24.1079 146.496 24.9985 148.745 24.9985C150.995 24.9985 152.237 24.1679 152.237 22.7421C152.237 21.3163 151.467 20.3973 147.886 19.8621C142.471 19.1799 140.961 17.4873 140.961 15.0825C140.961 12.5292 143.299 10.5112 147.976 10.5112C152.652 10.5112 155.226 12.2624 155.434 14.5787V14.7871L151.647 15.3208L151.587 14.964C151.409 13.6582 149.929 12.9745 147.887 12.9745C145.846 12.9745 144.78 13.7766 144.78 14.7856C144.78 15.973 145.934 16.6852 149.663 17.2204C154.458 17.8141 156.056 19.7136 156.056 22.3253L156.054 22.3268Z" fill="#152022"/>
<path d="M53.543 37.1034C53.1036 37.1034 52.7165 36.9925 52.3817 36.7721C52.0469 36.5517 51.7853 36.2444 51.5955 35.8516C51.4057 35.4588 51.3115 35.0075 51.3115 34.4962C51.3115 33.985 51.4057 33.5202 51.5955 33.1259C51.7853 32.7316 52.0469 32.4243 52.3817 32.2039C52.7165 31.9835 53.1036 31.8726 53.543 31.8726C53.7986 31.8726 54.0348 31.91 54.2485 31.9865C54.4623 32.0615 54.6521 32.1619 54.818 32.2879C54.9839 32.4138 55.1214 32.5517 55.232 32.7046C55.3426 32.8576 55.4218 33.0105 55.4741 33.1649L54.8912 33.3463C54.8643 33.2534 54.815 33.1529 54.7418 33.0465C54.67 32.94 54.5773 32.8411 54.4638 32.7466C54.3502 32.6537 54.2171 32.5772 54.0632 32.5172C53.9092 32.4588 53.7359 32.4288 53.543 32.4288C53.1993 32.4288 52.9078 32.5217 52.6687 32.7091C52.4295 32.8965 52.2457 33.1454 52.1201 33.4573C51.9931 33.7691 51.9303 34.1139 51.9303 34.4947C51.9303 34.8756 51.9931 35.2129 52.1201 35.5232C52.2472 35.8351 52.4295 36.0825 52.6687 36.2684C52.9078 36.4543 53.1993 36.5472 53.543 36.5472C53.7388 36.5472 53.9152 36.5172 54.0722 36.4573C54.2291 36.3973 54.3651 36.3193 54.4817 36.2234C54.5983 36.1274 54.6924 36.0255 54.7642 35.9145C54.8359 35.8036 54.8867 35.7001 54.9136 35.6042L55.4921 35.7856C55.4442 35.943 55.3635 36.0989 55.2529 36.2519C55.1408 36.4063 55.0018 36.5472 54.8329 36.6762C54.664 36.8051 54.4712 36.907 54.2545 36.985C54.0378 37.0615 53.8016 37.1004 53.5445 37.1004L53.543 37.1034Z" fill="#152022"/>
<path d="M59.087 37.1169C58.6476 37.1169 58.2604 37.006 57.9256 36.7841C57.5908 36.5622 57.3293 36.2534 57.1395 35.8591C56.9496 35.4648 56.8555 35.012 56.8555 34.5023C56.8555 33.9925 56.9496 33.5262 57.1395 33.1319C57.3293 32.7376 57.5908 32.4288 57.9256 32.2069C58.2604 31.985 58.6476 31.8741 59.087 31.8741C59.5264 31.8741 59.9105 31.985 60.2453 32.2069C60.5816 32.4288 60.8447 32.7376 61.033 33.1319C61.2228 33.5262 61.317 33.9835 61.317 34.5023C61.317 35.021 61.2228 35.4648 61.0345 35.8591C60.8462 36.2534 60.5846 36.5622 60.2483 36.7841C59.912 37.006 59.5249 37.1169 59.0855 37.1169H59.087ZM59.087 36.5592C59.4337 36.5592 59.7267 36.4663 59.9688 36.2789C60.2095 36.0915 60.3933 35.8426 60.5174 35.5307C60.6429 35.2189 60.7042 34.8771 60.7042 34.5023C60.7042 34.1274 60.6414 33.7796 60.5144 33.4663C60.3873 33.1529 60.2035 32.9026 59.9629 32.7136C59.7222 32.5247 59.4293 32.4303 59.087 32.4303C58.7447 32.4303 58.4518 32.5247 58.2126 32.7136C57.9735 32.9026 57.7896 33.1529 57.6641 33.4663C57.537 33.7796 57.4743 34.1244 57.4743 34.5023C57.4743 34.8801 57.537 35.2204 57.6611 35.5307C57.7866 35.8426 57.969 36.0915 58.2081 36.2789C58.4473 36.4663 58.7402 36.5592 59.087 36.5592Z" fill="#152022"/>
<path d="M62.9727 37.0075V31.94H63.569L63.5735 33.096H63.5062C63.575 32.8126 63.6871 32.5787 63.8411 32.3973C63.995 32.2159 64.1744 32.0795 64.3806 31.9895C64.5869 31.8995 64.7991 31.8531 65.0158 31.8531C65.3865 31.8531 65.6914 31.9685 65.9306 32.1979C66.1697 32.4273 66.3222 32.7361 66.3894 33.1229H66.2893C66.3491 32.8606 66.4582 32.6342 66.6151 32.4453C66.7721 32.2564 66.9634 32.1109 67.1891 32.0075C67.4148 31.904 67.6614 31.8531 67.9304 31.8531C68.2323 31.8531 68.4999 31.919 68.7375 32.051C68.9737 32.1829 69.1605 32.3778 69.298 32.6357C69.4355 32.8936 69.5043 33.2129 69.5043 33.5937V37.006H68.8945V33.6117C68.8945 33.2039 68.7854 32.9025 68.5686 32.7091C68.3519 32.5157 68.0859 32.4198 67.769 32.4198C67.5284 32.4198 67.3161 32.4708 67.1323 32.5742C66.9484 32.6777 66.805 32.8216 66.7003 33.009C66.5957 33.1964 66.5449 33.4153 66.5449 33.6657V37.006H65.9351V33.5577C65.9351 33.2069 65.8334 32.9295 65.6302 32.7256C65.4269 32.5217 65.1638 32.4198 64.8425 32.4198C64.6168 32.4198 64.409 32.4723 64.2192 32.5787C64.0294 32.6852 63.8769 32.8351 63.7633 33.0315C63.6482 33.2279 63.5914 33.4663 63.5914 33.7481V37.0075H62.9771H62.9727Z" fill="#152022"/>
<path d="M71.416 37.0075V31.94H72.0124L72.0169 33.096H71.9496C72.0184 32.8126 72.1305 32.5787 72.2844 32.3973C72.4384 32.2159 72.6177 32.0795 72.824 31.9895C73.0302 31.8995 73.2425 31.8531 73.4592 31.8531C73.8299 31.8531 74.1348 31.9685 74.3739 32.1979C74.6131 32.4273 74.7655 32.7361 74.8328 33.1229H74.7327C74.7924 32.8606 74.9015 32.6342 75.0585 32.4453C75.2154 32.2564 75.4067 32.1109 75.6324 32.0075C75.8581 31.904 76.1047 31.8531 76.3738 31.8531C76.6757 31.8531 76.9432 31.919 77.1809 32.051C77.4171 32.1829 77.6039 32.3778 77.7414 32.6357C77.8789 32.8936 77.9477 33.2129 77.9477 33.5937V37.006H77.3378V33.6117C77.3378 33.2039 77.2287 32.9025 77.012 32.7091C76.7953 32.5157 76.5292 32.4198 76.2124 32.4198C75.9717 32.4198 75.7595 32.4708 75.5756 32.5742C75.3918 32.6777 75.2483 32.8216 75.1437 33.009C75.0391 33.1964 74.9882 33.4153 74.9882 33.6657V37.006H74.3784V33.5577C74.3784 33.2069 74.2768 32.9295 74.0735 32.7256C73.8702 32.5217 73.6072 32.4198 73.2858 32.4198C73.0601 32.4198 72.8524 32.4723 72.6626 32.5787C72.4727 32.6852 72.3203 32.8351 72.2067 33.0315C72.0916 33.2279 72.0348 33.4663 72.0348 33.7481V37.0075H71.4205H71.416Z" fill="#152022"/>
<path d="M81.5921 37.0765C81.2514 37.0765 80.9509 37.0045 80.6909 36.8606C80.4308 36.7166 80.2275 36.5068 80.081 36.2309C79.9346 35.955 79.8613 35.6162 79.8613 35.2174V31.94H80.4756V35.1709C80.4756 35.5847 80.5922 35.9115 80.8239 36.1514C81.0556 36.3913 81.3664 36.5112 81.7551 36.5112C82.0196 36.5112 82.2588 36.4543 82.4695 36.3418C82.6802 36.2279 82.8461 36.066 82.9687 35.8531C83.0913 35.6402 83.1511 35.3883 83.1511 35.099V31.94H83.7654V37.0075H83.169V35.8246H83.2587C83.1197 36.2714 82.9015 36.5922 82.604 36.7856C82.3051 36.979 81.9688 37.075 81.5921 37.075V37.0765Z" fill="#152022"/>
<path d="M86.295 33.8486V37.0075H85.6807V31.94H86.2726L86.277 33.1229H86.1829C86.3219 32.6822 86.5386 32.3628 86.836 32.1664C87.132 31.97 87.4728 31.8726 87.8554 31.8726C88.1992 31.8726 88.4996 31.9445 88.7567 32.0885C89.0137 32.2324 89.2155 32.4408 89.362 32.7166C89.5085 32.9925 89.5817 33.3298 89.5817 33.7316V37.009H88.9719V33.7781C88.9719 33.3643 88.8553 33.0375 88.6236 32.7976C88.392 32.5577 88.0811 32.4378 87.6925 32.4378C87.4279 32.4378 87.1888 32.4947 86.978 32.6072C86.7673 32.7211 86.6014 32.8831 86.4788 33.0974C86.3563 33.3103 86.2965 33.5622 86.2965 33.8516L86.295 33.8486Z" fill="#152022"/>
<path d="M91.8073 31.003C91.6862 31.003 91.5816 30.961 91.4934 30.8756C91.4052 30.7916 91.3604 30.6897 91.3604 30.5712C91.3604 30.4528 91.4052 30.3478 91.4934 30.2654C91.5816 30.1829 91.6862 30.1409 91.8073 30.1409C91.9283 30.1409 92.0359 30.1829 92.1241 30.2654C92.2108 30.3478 92.2556 30.4498 92.2556 30.5712C92.2556 30.6927 92.2123 30.7901 92.1241 30.8756C92.0374 30.9595 91.9313 31.003 91.8073 31.003ZM91.4949 37.0075V31.94H92.1092V37.0075H91.4949Z" fill="#152022"/>
<path d="M95.9952 37.1034C95.5558 37.1034 95.1686 36.9925 94.8338 36.7721C94.499 36.5517 94.2375 36.2444 94.0477 35.8516C93.8578 35.4588 93.7637 35.0075 93.7637 34.4962C93.7637 33.985 93.8578 33.5202 94.0477 33.1259C94.2375 32.7316 94.499 32.4243 94.8338 32.2039C95.1686 31.9835 95.5558 31.8726 95.9952 31.8726C96.2508 31.8726 96.4869 31.91 96.7007 31.9865C96.9144 32.063 97.1042 32.1619 97.2701 32.2879C97.436 32.4138 97.5735 32.5517 97.6841 32.7046C97.7948 32.8576 97.874 33.0105 97.9263 33.1649L97.3434 33.3463C97.3165 33.2534 97.2671 33.1529 97.1939 33.0465C97.1222 32.94 97.0295 32.8411 96.9159 32.7466C96.8023 32.6537 96.6693 32.5772 96.5153 32.5172C96.3614 32.4588 96.188 32.4288 95.9952 32.4288C95.6514 32.4288 95.36 32.5217 95.1208 32.7091C94.8817 32.8965 94.6978 33.1454 94.5723 33.4573C94.4452 33.7691 94.3825 34.1139 94.3825 34.4947C94.3825 34.8756 94.4452 35.2129 94.5723 35.5232C94.6993 35.8351 94.8817 36.0825 95.1208 36.2684C95.36 36.4543 95.6514 36.5472 95.9952 36.5472C96.191 36.5472 96.3674 36.5172 96.5243 36.4573C96.6812 36.3973 96.8172 36.3193 96.9338 36.2234C97.0504 36.1289 97.1446 36.0255 97.2163 35.9145C97.2881 35.8036 97.3389 35.7001 97.3658 35.6042L97.9442 35.7856C97.8964 35.943 97.8157 36.0989 97.7051 36.2519C97.593 36.4063 97.454 36.5472 97.2851 36.6762C97.1162 36.8051 96.9234 36.907 96.7066 36.985C96.4899 37.0615 96.2538 37.1004 95.9967 37.1004L95.9952 37.1034Z" fill="#152022"/>
<path d="M100.988 37.1214C100.68 37.1214 100.4 37.063 100.149 36.9445C99.8982 36.8261 99.6979 36.6522 99.5484 36.4228C99.399 36.1934 99.3242 35.9145 99.3242 35.5892C99.3242 35.3388 99.3705 35.1274 99.4647 34.9565C99.5574 34.7856 99.6919 34.6447 99.8668 34.5352C100.042 34.4243 100.246 34.3373 100.484 34.2744C100.72 34.2114 100.982 34.1604 101.269 34.1244C101.548 34.0885 101.787 34.057 101.983 34.0315C102.179 34.006 102.328 33.964 102.433 33.907C102.538 33.8501 102.589 33.7571 102.589 33.6312V33.5127C102.589 33.2864 102.542 33.0915 102.451 32.928C102.358 32.7646 102.225 32.6402 102.049 32.5517C101.873 32.4648 101.657 32.4198 101.405 32.4198C101.167 32.4198 100.958 32.4573 100.777 32.5307C100.596 32.6042 100.447 32.7016 100.327 32.8201C100.208 32.94 100.118 33.0705 100.058 33.2129L99.4707 33.0135C99.5828 32.7391 99.7382 32.5172 99.94 32.3523C100.142 32.1859 100.369 32.0645 100.622 31.988C100.874 31.9115 101.131 31.8726 101.39 31.8726C101.589 31.8726 101.793 31.8995 102.004 31.952C102.215 32.0045 102.411 32.0944 102.592 32.2189C102.772 32.3448 102.919 32.5172 103.029 32.7361C103.142 32.955 103.197 33.2324 103.197 33.5682V37.009H102.596V36.2069H102.551C102.479 36.3613 102.372 36.5082 102.23 36.6492C102.088 36.7901 101.914 36.904 101.708 36.991C101.502 37.078 101.261 37.1229 100.988 37.1229V37.1214ZM101.079 36.5727C101.387 36.5727 101.653 36.5052 101.879 36.3688C102.104 36.2324 102.279 36.0495 102.403 35.8201C102.527 35.5907 102.589 35.3388 102.589 35.063V34.3418C102.544 34.3838 102.469 34.4213 102.367 34.4558C102.264 34.4888 102.148 34.5172 102.018 34.5412C101.888 34.5652 101.755 34.5862 101.622 34.6042C101.488 34.6222 101.373 34.6372 101.273 34.6492C100.992 34.6822 100.753 34.7361 100.553 34.8126C100.353 34.8876 100.2 34.991 100.097 35.1214C99.9923 35.2519 99.9415 35.4153 99.9415 35.6162C99.9415 35.8171 99.9908 35.991 100.091 36.1334C100.191 36.2759 100.326 36.3838 100.498 36.4603C100.669 36.5352 100.864 36.5742 101.08 36.5742L101.079 36.5727Z" fill="#152022"/>
<path d="M106.821 31.9415V32.4768H104.418V31.9415H106.821ZM105.167 30.7361H105.781V35.8126C105.781 36.063 105.836 36.2474 105.948 36.3658C106.061 36.4843 106.229 36.5307 106.46 36.5067C106.502 36.5067 106.554 36.5007 106.615 36.4903C106.676 36.4798 106.735 36.4678 106.788 36.4558L106.916 36.9865C106.85 37.0075 106.777 37.024 106.696 37.036C106.615 37.048 106.536 37.0555 106.454 37.0585C106.05 37.0855 105.735 36.9895 105.508 36.7706C105.28 36.5517 105.167 36.2459 105.167 35.8531V30.7361Z" fill="#152022"/>
<path d="M108.555 31.003C108.434 31.003 108.33 30.961 108.241 30.8756C108.153 30.7916 108.108 30.6897 108.108 30.5712C108.108 30.4528 108.153 30.3478 108.241 30.2654C108.33 30.1829 108.434 30.1409 108.555 30.1409C108.676 30.1409 108.784 30.1829 108.872 30.2654C108.959 30.3478 109.004 30.4498 109.004 30.5712C109.004 30.6927 108.96 30.7901 108.872 30.8756C108.785 30.9595 108.679 31.003 108.555 31.003ZM108.244 37.0075V31.94H108.859V37.0075H108.244Z" fill="#152022"/>
<path d="M112.743 37.1169C112.304 37.1169 111.917 37.006 111.582 36.7841C111.247 36.5622 110.986 36.2534 110.796 35.8591C110.606 35.4648 110.512 35.012 110.512 34.5023C110.512 33.9925 110.606 33.5262 110.796 33.1319C110.986 32.7376 111.247 32.4288 111.582 32.2069C111.917 31.985 112.304 31.8741 112.743 31.8741C113.183 31.8741 113.567 31.985 113.902 32.2069C114.236 32.4288 114.501 32.7376 114.691 33.1319C114.881 33.5262 114.975 33.9835 114.975 34.5023C114.975 35.021 114.881 35.4648 114.692 35.8591C114.504 36.2534 114.242 36.5622 113.906 36.7841C113.57 37.006 113.183 37.1169 112.743 37.1169ZM112.743 36.5592C113.09 36.5592 113.383 36.4663 113.625 36.2789C113.866 36.0915 114.05 35.8426 114.174 35.5307C114.299 35.2189 114.36 34.8771 114.36 34.5023C114.36 34.1274 114.298 33.7796 114.171 33.4663C114.044 33.1529 113.86 32.9026 113.619 32.7136C113.378 32.5247 113.086 32.4303 112.742 32.4303C112.398 32.4303 112.107 32.5247 111.867 32.7136C111.628 32.9026 111.444 33.1529 111.319 33.4663C111.193 33.7796 111.129 34.1244 111.129 34.5023C111.129 34.8801 111.192 35.2204 111.316 35.5307C111.441 35.8426 111.624 36.0915 111.863 36.2789C112.102 36.4663 112.395 36.5592 112.742 36.5592H112.743Z" fill="#152022"/>
<path d="M117.243 33.8486V37.0075H116.629V31.94H117.221L117.225 33.1229H117.131C117.27 32.6822 117.487 32.3628 117.784 32.1664C118.08 31.97 118.421 31.8726 118.804 31.8726C119.147 31.8726 119.448 31.9445 119.705 32.0885C119.962 32.2324 120.164 32.4408 120.31 32.7166C120.457 32.9925 120.53 33.3298 120.53 33.7316V37.009H119.92V33.7781C119.92 33.3643 119.804 33.0375 119.572 32.7976C119.34 32.5577 119.029 32.4378 118.641 32.4378C118.376 32.4378 118.137 32.4947 117.926 32.6072C117.716 32.7211 117.55 32.8831 117.427 33.0974C117.304 33.3103 117.245 33.5622 117.245 33.8516L117.243 33.8486Z" fill="#152022"/>
<path d="M124.052 37.1169C123.72 37.1169 123.427 37.066 123.17 36.9655C122.913 36.8651 122.703 36.7166 122.538 36.5217C122.372 36.3268 122.258 36.087 122.198 35.8036L122.786 35.6627C122.857 35.9685 123.002 36.1949 123.218 36.3448C123.433 36.4947 123.708 36.5697 124.043 36.5697C124.425 36.5697 124.732 36.4843 124.962 36.3118C125.192 36.1394 125.307 35.925 125.307 35.6687C125.307 35.4633 125.238 35.2924 125.101 35.1559C124.963 35.0195 124.759 34.919 124.484 34.8516L123.662 34.6522C123.228 34.5457 122.904 34.3808 122.688 34.1559C122.473 33.931 122.366 33.6477 122.366 33.3058C122.366 33.0225 122.442 32.7721 122.594 32.5577C122.747 32.3433 122.956 32.1754 123.222 32.054C123.488 31.9325 123.792 31.8726 124.132 31.8726C124.452 31.8726 124.726 31.922 124.954 32.0195C125.183 32.1184 125.373 32.2564 125.521 32.4348C125.67 32.6132 125.782 32.8246 125.857 33.069L125.297 33.2144C125.219 32.982 125.087 32.7886 124.905 32.6372C124.723 32.4843 124.466 32.4078 124.135 32.4078C123.805 32.4078 123.525 32.4873 123.309 32.6477C123.092 32.8081 122.983 33.015 122.983 33.2684C122.983 33.4828 123.056 33.6582 123.203 33.7946C123.349 33.931 123.576 34.036 123.887 34.1124L124.66 34.2983C125.087 34.4048 125.407 34.5682 125.62 34.7931C125.832 35.018 125.938 35.2968 125.938 35.6312C125.938 35.922 125.859 36.1784 125.699 36.4018C125.539 36.6252 125.318 36.8006 125.032 36.928C124.747 37.0555 124.419 37.1184 124.049 37.1184L124.052 37.1169Z" fill="#152022"/>
<path d="M132.497 39.012C132.153 39.012 131.851 38.967 131.591 38.8786C131.331 38.7901 131.111 38.6672 130.933 38.5142C130.756 38.3598 130.617 38.1829 130.518 37.9835L131.025 37.6747C131.096 37.8051 131.194 37.931 131.316 38.0525C131.439 38.1754 131.596 38.2744 131.788 38.3523C131.981 38.4288 132.217 38.4678 132.498 38.4678C132.944 38.4678 133.303 38.3568 133.573 38.1349C133.844 37.913 133.98 37.5697 133.98 37.1034V35.9655H133.921C133.856 36.1229 133.758 36.2774 133.63 36.4303C133.501 36.5832 133.335 36.7076 133.131 36.8066C132.926 36.9055 132.673 36.9535 132.371 36.9535C131.971 36.9535 131.615 36.8531 131.303 36.6537C130.99 36.4543 130.747 36.1694 130.569 35.7976C130.391 35.4258 130.303 34.982 130.303 34.4648C130.303 33.9475 130.389 33.4962 130.564 33.1079C130.739 32.7196 130.983 32.4168 131.297 32.1994C131.611 31.982 131.972 31.8726 132.386 31.8726C132.694 31.8726 132.95 31.9265 133.155 32.036C133.359 32.1454 133.524 32.2804 133.649 32.4423C133.775 32.6042 133.87 32.7616 133.936 32.916H133.999V31.9415H134.595V37.1304C134.595 37.5592 134.506 37.913 134.325 38.1904C134.144 38.4678 133.896 38.6747 133.579 38.8096C133.262 38.9445 132.903 39.012 132.5 39.012H132.497ZM132.461 36.4003C132.784 36.4003 133.059 36.3223 133.286 36.1664C133.513 36.0105 133.688 35.7871 133.808 35.4962C133.929 35.2054 133.989 34.8561 133.989 34.4513C133.989 34.0465 133.929 33.7106 133.811 33.4063C133.691 33.1019 133.519 32.8636 133.294 32.6896C133.068 32.5157 132.79 32.4288 132.463 32.4288C132.135 32.4288 131.851 32.5187 131.623 32.6986C131.394 32.8786 131.219 33.1214 131.101 33.4258C130.981 33.7316 130.923 34.072 130.923 34.4498C130.923 34.8276 130.983 35.1724 131.104 35.4648C131.225 35.7571 131.4 35.9865 131.628 36.1514C131.857 36.3163 132.137 36.3988 132.464 36.3988L132.461 36.4003Z" fill="#152022"/>
<path d="M136.508 37.0075V31.94H137.104V32.7286H137.149C137.252 32.4693 137.427 32.2609 137.675 32.1049C137.923 31.949 138.206 31.8711 138.523 31.8711C138.573 31.8711 138.629 31.8711 138.686 31.8726C138.742 31.8741 138.793 31.8771 138.835 31.8801V32.4963C138.814 32.4903 138.769 32.4828 138.699 32.4753C138.63 32.4678 138.554 32.4633 138.473 32.4633C138.215 32.4633 137.982 32.5187 137.777 32.6312C137.572 32.7436 137.412 32.8951 137.295 33.0885C137.179 33.2819 137.122 33.5037 137.122 33.7541V37.003H136.508V37.0075Z" fill="#152022"/>
<path d="M142.021 37.1169C141.581 37.1169 141.194 37.006 140.859 36.7841C140.524 36.5622 140.263 36.2534 140.073 35.8591C139.883 35.4648 139.789 35.012 139.789 34.5023C139.789 33.9925 139.883 33.5262 140.073 33.1319C140.263 32.7376 140.524 32.4288 140.859 32.2069C141.194 31.985 141.581 31.8741 142.021 31.8741C142.46 31.8741 142.844 31.985 143.179 32.2069C143.514 32.4288 143.778 32.7376 143.968 33.1319C144.158 33.5262 144.252 33.9835 144.252 34.5023C144.252 35.021 144.158 35.4648 143.97 35.8591C143.781 36.2534 143.52 36.5622 143.183 36.7841C142.847 37.006 142.46 37.1169 142.021 37.1169ZM142.021 36.5592C142.367 36.5592 142.66 36.4663 142.902 36.2789C143.143 36.0915 143.327 35.8426 143.451 35.5307C143.577 35.2189 143.638 34.8771 143.638 34.5023C143.638 34.1274 143.575 33.7796 143.448 33.4663C143.321 33.1529 143.137 32.9026 142.896 32.7136C142.656 32.5247 142.363 32.4303 142.019 32.4303C141.675 32.4303 141.384 32.5247 141.145 32.7136C140.906 32.9026 140.722 33.1529 140.596 33.4663C140.471 33.7796 140.406 34.1244 140.406 34.5023C140.406 34.8801 140.469 35.2204 140.593 35.5307C140.719 35.8426 140.901 36.0915 141.14 36.2789C141.379 36.4663 141.672 36.5592 142.019 36.5592H142.021Z" fill="#152022"/>
<path d="M147.637 37.0765C147.296 37.0765 146.996 37.0045 146.736 36.8606C146.476 36.7166 146.272 36.5068 146.126 36.2309C145.979 35.955 145.906 35.6162 145.906 35.2174V31.94H146.521V35.1709C146.521 35.5847 146.637 35.9115 146.869 36.1514C147.1 36.3913 147.411 36.5112 147.8 36.5112C148.065 36.5112 148.304 36.4543 148.514 36.3418C148.725 36.2279 148.891 36.066 149.014 35.8531C149.136 35.6402 149.196 35.3883 149.196 35.099V31.94H149.81V37.0075H149.214V35.8246H149.304C149.165 36.2714 148.946 36.5922 148.649 36.7856C148.35 36.979 148.014 37.075 147.637 37.075V37.0765Z" fill="#152022"/>
<path d="M151.726 38.9026V31.9415H152.322V32.916H152.389C152.455 32.7616 152.551 32.6042 152.676 32.4453C152.802 32.2849 152.965 32.1499 153.168 32.039C153.371 31.928 153.628 31.8741 153.938 31.8741C154.35 31.8741 154.712 31.9835 155.021 32.2009C155.331 32.4183 155.574 32.7241 155.749 33.1169C155.924 33.5098 156.011 33.967 156.011 34.4903C156.011 35.0135 155.924 35.4753 155.751 35.8711C155.577 36.2654 155.335 36.5727 155.026 36.7916C154.716 37.0105 154.353 37.1199 153.936 37.1199C153.634 37.1199 153.382 37.0645 153.175 36.955C152.969 36.8441 152.803 36.7077 152.678 36.5442C152.552 36.3808 152.455 36.2204 152.386 36.063H152.337V38.9056H151.723L151.726 38.9026ZM153.859 36.5592C154.19 36.5592 154.47 36.4678 154.697 36.2834C154.924 36.099 155.098 35.8501 155.217 35.5352C155.337 35.2204 155.395 34.8711 155.395 34.4843C155.395 34.0975 155.337 33.7496 155.219 33.4393C155.101 33.1289 154.929 32.8846 154.699 32.7032C154.47 32.5217 154.189 32.4318 153.859 32.4318C153.528 32.4318 153.256 32.5187 153.029 32.6942C152.802 32.8696 152.628 33.111 152.509 33.4198C152.389 33.7286 152.331 34.0825 152.331 34.4843C152.331 34.8861 152.391 35.2429 152.512 35.5562C152.633 35.8696 152.806 36.1139 153.033 36.2924C153.261 36.4708 153.536 36.5592 153.859 36.5592Z" fill="#152022"/>
<path d="M52.8183 4.61919C51.4477 4.77511 51.1099 6.08246 51.3834 7.26987C51.778 8.98351 54.7808 8.95802 55.1545 7.23538C55.5431 5.44528 54.6253 4.41379 52.8183 4.61919Z" fill="#152022"/>
</svg>
