<svg width="48" height="48" viewBox="0 0 48 48" fill="none" xmlns="http://www.w3.org/2000/svg">
<path d="M26 18.34C24.7994 17.9155 23.4946 17.884 22.275 18.2502C21.0552 18.6163 19.9836 19.3611 19.2152 20.3766C18.4468 21.3922 18.0215 22.626 18.0008 23.8994C17.9801 25.1728 18.3651 26.4196 19.1001 27.4596C19.8351 28.4996 20.882 29.2788 22.0892 29.6844C23.2964 30.09 24.6014 30.101 25.8152 29.7156C27.029 29.3304 28.0888 28.5688 28.8412 27.5414C29.5934 26.5138 29.9994 25.2736 30 24V4.916C38.114 7.464 44 15.044 44 24C44 35.046 35.046 44 24 44C12.954 44 4 35.046 4 24C4 12.954 12.954 4 24 4C24.674 4 25.342 4.034 26 4.1V18.34Z" fill="#00513F"/>
</svg>
