<svg width="48" height="48" viewBox="0 0 48 48" fill="none" xmlns="http://www.w3.org/2000/svg">
<path d="M25.0989 19.941L23.7109 20.7042C16.4258 25.4034 9.65377 36.4515 19.2181 42.8271C19.2839 42.8705 19.3662 42.8138 19.33 42.9705C16.8402 42.5339 14.4656 41.8006 12.3113 40.4475C5.65436 36.2682 4.38483 27.4697 5.23339 20.1509C6.22337 11.6224 10.6405 6.67318 19.0833 5.37006C24.7042 4.50354 32.1965 5.00679 36.9129 8.51954C42.0931 12.3789 43.1916 19.3911 42.9745 25.5267C42.6686 34.1886 38.2285 41.644 29.2298 42.8438C21.037 43.937 12.9559 39.2544 17.1132 29.986C18.886 26.0366 22.0927 22.9238 25.0989 19.941ZM23.3096 31.7057C24.0135 32.5355 23.0761 33.1188 22.3756 33.4087C21.06 33.9486 18.7149 34.1086 18.761 36.1083C18.8366 39.2877 24.4082 39.4077 26.546 39.0811C35.4986 37.7113 37.2286 26.9365 35.8736 19.4077C34.5251 11.919 29.6804 7.56303 21.9381 8.60619C11.7423 9.98263 10.2162 23.2237 12.8638 31.3224C12.9198 31.4924 12.9592 31.759 13.1072 31.8556C13.321 30.9691 13.5348 30.0759 13.6203 29.1661C13.7387 27.8896 13.6532 26.6032 13.7354 25.3467C13.7847 24.6102 13.9064 23.5604 14.8931 23.767C15.2714 23.847 15.8469 24.4502 16.1199 23.6503C16.3765 22.9005 16.018 21.2707 15.9654 20.4242C15.893 19.2644 15.9292 15.535 17.9782 16.3616C18.738 16.6682 19.603 19.2011 20.5009 17.9613C20.9383 17.3581 21.2113 15.7283 21.504 14.9251C21.8625 13.942 22.5038 12.5955 23.6616 12.4256C25.5922 12.1423 24.9936 14.6618 25.4015 15.7817C25.6679 16.5115 26.4737 16.0083 26.9144 15.7217C27.8978 15.0784 28.6937 13.7887 29.8021 13.3821C30.5454 13.1088 31.3743 13.1921 31.7492 13.9786C32.5353 15.6317 30.2428 17.4547 29.5094 18.7578C28.9634 19.7343 29.3088 20.3842 30.3415 20.6675C31.3742 20.9508 33.0714 20.7842 33.3082 22.1739C33.693 24.4302 29.96 24.4869 28.5951 24.9501C28.151 25.1001 27.411 25.4334 27.3814 25.9799C27.3189 27.1298 29.8876 27.1331 29.2956 28.6662C28.7628 30.0426 25.3455 30.1059 24.1155 30.3626C23.7043 30.4492 22.9018 30.6258 22.9248 31.1824C22.938 31.5057 23.1682 31.529 23.3096 31.6957V31.7057Z" fill="#00644F"/>
</svg>
