<svg width="134" height="134" viewBox="0 0 134 134" fill="none" xmlns="http://www.w3.org/2000/svg">
<path fill-rule="evenodd" clip-rule="evenodd" d="M67 0.333374C30.181 0.333374 0.333374 30.181 0.333374 67C0.333374 103.819 30.181 133.667 67 133.667C103.819 133.667 133.667 103.819 133.667 67C133.667 30.181 103.819 0.333374 67 0.333374ZM60.8787 47.7126C59.4074 46.7858 57.5754 46.7615 56.0827 47.649C54.5894 48.5366 53.6667 50.1987 53.6667 52V82C53.6667 83.8014 54.5894 85.4634 56.0827 86.3507C57.5754 87.2387 59.4074 87.214 60.8787 86.2874L84.688 71.2874C86.1227 70.384 87 68.756 87 67C87 65.244 86.1227 63.616 84.688 62.7127L60.8787 47.7126Z" fill="#E7FF25"/>
</svg>
