<svg width="48" height="48" viewBox="0 0 48 48" fill="none" xmlns="http://www.w3.org/2000/svg">
<path fill-rule="evenodd" clip-rule="evenodd" d="M7.19999 7.19995C6.56346 7.19995 5.95302 7.45282 5.50292 7.90289C5.05285 8.35298 4.79999 8.96342 4.79999 9.59995C4.79999 10.2365 5.05285 10.8469 5.50292 11.297C5.95302 11.7471 6.56346 12 7.19999 12V31.1999C7.19999 32.4729 7.70569 33.6938 8.60588 34.594C9.50605 35.4943 10.727 36 12 36H18.2064L15.1032 39.1031C14.874 39.3244 14.6911 39.5894 14.5653 39.8822C14.4396 40.175 14.3733 40.4899 14.3706 40.8086C14.3678 41.1273 14.4285 41.4434 14.5492 41.7383C14.6699 42.0331 14.8481 42.3012 15.0734 42.5265C15.2988 42.7519 15.5667 42.9299 15.8617 43.0507C16.1566 43.1714 16.4727 43.2321 16.7913 43.2295C17.11 43.2266 17.4249 43.1604 17.7177 43.0346C18.0106 42.9088 18.2754 42.726 18.4968 42.4967L24 36.9935L29.5032 42.4967C29.9558 42.934 30.5621 43.1759 31.1913 43.1704C31.8206 43.1649 32.4226 42.9124 32.8675 42.4675C33.3125 42.0225 33.565 41.4206 33.5705 40.7913C33.576 40.162 33.3341 39.5558 32.8968 39.1031L29.7936 36H36C37.2729 36 38.4938 35.4943 39.3941 34.594C40.2943 33.6938 40.8 32.4729 40.8 31.1999V12C41.4365 12 42.047 11.7471 42.497 11.297C42.947 10.8469 43.2 10.2365 43.2 9.59995C43.2 8.96342 42.947 8.35298 42.497 7.90289C42.047 7.45282 41.4365 7.19995 40.8 7.19995H7.19999ZM33.6 16.8C33.6 16.1634 33.347 15.553 32.897 15.1029C32.447 14.6528 31.8365 14.4 31.2 14.4C30.5635 14.4 29.9529 14.6528 29.5029 15.1029C29.0529 15.553 28.8 16.1634 28.8 16.8V26.4C28.8 27.0364 29.0529 27.647 29.5029 28.097C29.9529 28.547 30.5635 28.7999 31.2 28.7999C31.8365 28.7999 32.447 28.547 32.897 28.097C33.347 27.647 33.6 27.0364 33.6 26.4V16.8ZM26.4 19.2C26.4 18.5634 26.147 17.953 25.697 17.5029C25.247 17.0528 24.6365 16.8 24 16.8C23.3635 16.8 22.753 17.0528 22.3029 17.5029C21.8529 17.953 21.6 18.5634 21.6 19.2V26.4C21.6 27.0364 21.8529 27.647 22.3029 28.097C22.753 28.547 23.3635 28.7999 24 28.7999C24.6365 28.7999 25.247 28.547 25.697 28.097C26.147 27.647 26.4 27.0364 26.4 26.4V19.2ZM19.2 21.6C19.2 20.9634 18.9471 20.353 18.4971 19.9029C18.047 19.4528 17.4365 19.2 16.8 19.2C16.1635 19.2 15.553 19.4528 15.1029 19.9029C14.6529 20.353 14.4 20.9634 14.4 21.6V26.4C14.4 27.0364 14.6529 27.647 15.1029 28.097C15.553 28.547 16.1635 28.7999 16.8 28.7999C17.4365 28.7999 18.047 28.547 18.4971 28.097C18.9471 27.647 19.2 27.0364 19.2 26.4V21.6Z" fill="#00513F"/>
</svg>
