<svg width="261" height="132" viewBox="0 0 261 132" fill="none" xmlns="http://www.w3.org/2000/svg">
<path d="M10.8523 66.4718H0.0195312C0.0195312 66.4718 2.44486 40.4412 5.43691 40.4412C8.42896 40.4412 10.8523 66.4718 10.8523 66.4718ZM27.1024 -0.403502C24.1103 -0.403502 21.685 66.4718 21.685 66.4718H32.5198C32.5198 66.4718 30.0944 -0.403502 27.1024 -0.403502ZM10.8523 66.4718C10.8523 66.4718 13.2776 103.347 16.2696 103.347C19.2617 103.347 21.685 66.4718 21.685 66.4718H10.8523ZM54.1872 66.0554H65.02C65.02 66.0554 62.5946 92.086 59.6026 92.086C56.6105 92.086 54.1872 66.0554 54.1872 66.0554ZM37.9371 132.931C40.9292 132.931 43.3545 66.0554 43.3545 66.0554H32.5198C32.5198 66.0554 34.9451 132.931 37.9371 132.931ZM54.1872 66.0554C54.1872 66.0554 51.7619 29.1798 48.7699 29.1798C45.7778 29.1798 43.3545 66.0554 43.3545 66.0554H54.1872ZM75.8527 66.2626H65.02C65.02 66.2626 67.4453 40.2319 70.4374 40.2319C73.4294 40.2319 75.8527 66.2626 75.8527 66.2626ZM92.1028 -0.612724C89.1108 -0.612724 86.6854 66.2626 86.6854 66.2626H97.5202C97.5202 66.2626 95.0949 -0.612724 92.1028 -0.612724ZM75.8527 66.2626C75.8527 66.2626 78.278 103.138 81.2701 103.138C84.2621 103.138 86.6854 66.2626 86.6854 66.2626H75.8527ZM119.188 65.8462H130.02C130.02 65.8462 127.595 91.8768 124.603 91.8768C121.611 91.8768 119.188 65.8462 119.188 65.8462ZM102.938 132.721C105.93 132.721 108.355 65.8462 108.355 65.8462H97.5202C97.5202 65.8462 99.9455 132.721 102.938 132.721ZM119.188 65.8462C119.188 65.8462 116.762 28.9706 113.77 28.9706C110.778 28.9706 108.355 65.8462 108.355 65.8462H119.188ZM140.853 66.159H130.02C130.02 66.159 132.446 40.1283 135.438 40.1283C138.428 40.1283 140.853 66.159 140.853 66.159ZM157.103 -0.71632C154.111 -0.71632 151.686 66.159 151.686 66.159H162.521C162.521 66.159 160.095 -0.71632 157.103 -0.71632ZM140.853 66.159C140.853 66.159 143.278 103.035 146.271 103.035C149.263 103.035 151.686 66.159 151.686 66.159H140.853ZM184.188 65.7426H195.021C195.021 65.7426 192.596 91.7732 189.603 91.7732C186.613 91.7732 184.188 65.7426 184.188 65.7426ZM167.938 132.618C170.93 132.618 173.355 65.7426 173.355 65.7426H162.521C162.521 65.7426 164.946 132.618 167.938 132.618ZM184.188 65.7426C184.188 65.7426 181.763 28.867 178.771 28.867C175.779 28.867 173.355 65.7426 173.355 65.7426H184.188ZM205.854 65.9498H195.021C195.021 65.9498 197.446 39.9191 200.438 39.9191C203.428 39.9191 205.854 65.9498 205.854 65.9498ZM222.104 -0.925537C219.112 -0.925537 216.686 65.9498 216.686 65.9498H227.521C227.521 65.9498 225.096 -0.925537 222.104 -0.925537ZM205.854 65.9498C205.854 65.9498 208.279 102.825 211.271 102.825C214.263 102.825 216.686 65.9498 216.686 65.9498H205.854ZM249.189 65.5334H260.021C260.021 65.5334 257.596 91.564 254.604 91.564C251.614 91.566 249.189 65.5334 249.189 65.5334ZM232.938 132.409C235.931 132.409 238.356 65.5334 238.356 65.5334H227.521C227.521 65.5334 229.946 132.409 232.938 132.409ZM249.189 65.5334C249.189 65.5334 246.763 28.6578 243.771 28.6578C240.779 28.6578 238.356 65.5334 238.356 65.5334H249.189Z" fill="#00644F"/>
</svg>
