<svg width="32" height="32" viewBox="0 0 32 32" fill="none" xmlns="http://www.w3.org/2000/svg">
<path fill-rule="evenodd" clip-rule="evenodd" d="M14.8329 7.61096C10.8443 7.61096 7.61096 10.8443 7.61096 14.8329C7.61096 18.8214 10.8443 22.0548 14.8329 22.0548C18.8214 22.0548 22.0548 18.8214 22.0548 14.8329C22.0548 10.8443 18.8214 7.61096 14.8329 7.61096ZM4 14.8329C4 8.85004 8.85004 4 14.8329 4C20.8157 4 25.6658 8.85004 25.6658 14.8329C25.6658 17.1725 24.9241 19.3388 23.6629 21.1096L27.4712 24.9179C28.1763 25.623 28.1763 26.7662 27.4712 27.4712C26.7662 28.1763 25.623 28.1763 24.9179 27.4712L21.1096 23.6629C19.3388 24.9241 17.1725 25.6658 14.8329 25.6658C8.85004 25.6658 4 20.8157 4 14.8329Z" fill="#E7FF25"/>
</svg>
