<svg width="16" height="16" viewBox="0 0 16 16" fill="none" xmlns="http://www.w3.org/2000/svg">
<path d="M14.4475 2.69575C14.3807 2.6228 14.2864 2.57719 14.1891 2.57113C14.1527 2.57113 10.5778 2.43433 8.23106 0.488821C8.10035 0.370263 7.8997 0.370263 7.76899 0.488821C5.42224 2.43433 1.84738 2.57113 1.8109 2.57113C1.71362 2.57719 1.61939 2.6228 1.5525 2.69575C1.48564 2.77175 1.45523 2.86903 1.46435 2.96935C1.46435 2.96935 1.79873 6.83602 1.94161 8.43499C2.07841 10.0127 2.34592 12.9522 7.84803 15.5634C7.94227 15.6121 8.05778 15.6121 8.15202 15.5634C13.6541 12.9522 13.9216 10.0127 14.0584 8.43499C14.2013 6.83602 14.5357 2.96935 14.5357 2.96935C14.5448 2.86903 14.5144 2.77175 14.4475 2.69575ZM12.5446 8.30123C12.4291 9.61749 12.2437 11.7819 8.00002 13.9432V2.20634C9.70233 3.325 11.6722 3.78098 12.9246 3.96641C12.8121 5.23706 12.6388 7.25552 12.5446 8.30123Z" fill="#EFEFEF"/>
</svg>
