<svg width="196" height="103" viewBox="0 0 196 103" fill="none" xmlns="http://www.w3.org/2000/svg">
<path d="M10.6754 103H9.1875L116.458 0H117.947L10.6754 103Z" fill="#D7D7D7"/>
<path d="M21.9321 103H20.4442L127.714 0H129.203L21.9321 103Z" fill="#D7D7D7"/>
<path d="M33.1888 103H31.7009L138.971 0H140.46L33.1888 103Z" fill="#D7D7D7"/>
<path d="M44.4455 103H42.9576L150.228 0H151.717L44.4455 103Z" fill="#D7D7D7"/>
<path d="M55.7022 103H54.2143L161.484 0H162.973L55.7022 103Z" fill="#D7D7D7"/>
<path d="M66.9589 103H65.471L172.741 0H174.23L66.9589 103Z" fill="#D7D7D7"/>
<path d="M78.2157 103H76.7277L183.998 0H185.487L78.2157 103Z" fill="#D7D7D7"/>
<path d="M196 0.713154L89.4724 103H87.9844L195.255 0H196V0.713154Z" fill="#D7D7D7"/>
<path d="M196 11.5221L100.729 103H99.2411L196 10.0928V11.5221Z" fill="#D7D7D7"/>
<path d="M196 22.3301L111.986 103H110.499L196 20.9018V22.3301Z" fill="#D7D7D7"/>
<path d="M196 33.139L123.242 103H121.756L196 31.7107V33.139Z" fill="#D7D7D7"/>
<path d="M196 43.947L134.499 103H133.012L196 42.5197V43.947Z" fill="#D7D7D7"/>
<path d="M196 54.757L145.757 103H144.269L196 53.3276V54.757Z" fill="#D7D7D7"/>
<path d="M196 65.5659L157.014 103H155.526L196 64.1366V65.5659Z" fill="#D7D7D7"/>
<path d="M196 76.3739L168.27 103H166.782L196 74.9446V76.3739Z" fill="#D7D7D7"/>
<path d="M196 87.1829L179.527 103H178.039L196 85.7535V87.1829Z" fill="#D7D7D7"/>
<path d="M196 97.9908L190.784 103H189.296L196 96.5625V97.9908Z" fill="#D7D7D7"/>
<path d="M0 102.442V101.012L105.201 0H106.69L0 102.442Z" fill="#D7D7D7"/>
<path d="M0 91.6328V90.2045L93.9442 0H95.4331L0 91.6328Z" fill="#D7D7D7"/>
<path d="M0 80.8248V79.3955L82.6875 0H84.1754L0 80.8248Z" fill="#D7D7D7"/>
<path d="M0 70.0149V68.5865L71.4308 0H72.9187L0 70.0149Z" fill="#D7D7D7"/>
<path d="M0 59.2069V57.7786L60.1741 0H61.662L0 59.2069Z" fill="#D7D7D7"/>
<path d="M0 48.3979V46.9696L48.9164 0H50.4053L0 48.3979Z" fill="#D7D7D7"/>
<path d="M0 37.589V36.1606L37.6597 0H39.1486L0 37.589Z" fill="#D7D7D7"/>
<path d="M0 26.781V25.3517L26.403 0H27.8919L0 26.781Z" fill="#D7D7D7"/>
<path d="M0 15.972V14.5427L15.1463 0H16.6352L0 15.972Z" fill="#D7D7D7"/>
<path d="M0 5.16408V3.73476L3.88958 0H5.37852L0 5.16408Z" fill="#D7D7D7"/>
</svg>
