<svg width="48" height="48" viewBox="0 0 48 48" fill="none" xmlns="http://www.w3.org/2000/svg">
<path d="M22.2179 40.5372C22.3363 40.87 22.4003 41.2276 22.4003 41.6004C22.4003 43.3676 20.9675 44.8004 19.2003 44.8004C17.8059 44.8004 16.6187 43.9084 16.1819 42.6636L13.2715 34.4004H20.0563L22.2179 40.5372Z" fill="#00513F"/>
<path d="M2.40039 20.7996C2.40039 26.9852 7.41479 31.9996 13.6004 31.9996H28.0004V9.59961H13.6004C7.41479 9.59961 2.40039 14.614 2.40039 20.7996Z" fill="#00513F"/>
<path d="M43.09 4C42.9756 4 42.8588 4.0224 42.7436 4.072L30.4004 9.3616V32.2384L42.7444 37.528C42.8596 37.5776 42.9764 37.6 43.0908 37.6C43.5756 37.6 44.0004 37.2224 44.0004 36.7V4.9C44.0004 4.3776 43.5756 4 43.09 4Z" fill="#00513F"/>
</svg>
