<svg width="49" height="48" viewBox="0 0 49 48" fill="none" xmlns="http://www.w3.org/2000/svg">
<path d="M13.1333 12.8C15.7842 12.8 17.9333 10.6509 17.9333 7.99995C17.9333 5.34898 15.7842 3.19995 13.1333 3.19995C10.4823 3.19995 8.33325 5.34898 8.33325 7.99995C8.33325 10.6509 10.4823 12.8 13.1333 12.8Z" fill="#00513F"/>
<path d="M37.9333 41.6H32.3333V31.2H41.9333C42.8165 31.2 43.5333 30.4832 43.5333 29.6V7.19998C43.5333 6.31678 42.8165 5.59998 41.9333 5.59998H20.7644C21.0036 6.35758 21.1332 7.16398 21.1332 7.99998C21.1332 9.45758 20.7348 10.8216 20.05 12H25.5332C28.4004 12 30.7332 14.3328 30.7332 17.2C30.7332 20.0672 28.4004 22.4 25.5332 22.4H22.7332V31.2H29.1332V41.6H23.5332V44.8H37.9333V41.6Z" fill="#00513F"/>
<path d="M18.7333 44.8V19.2H25.5333C26.7061 19.2 27.6429 18.1904 27.5221 16.9936C27.4181 15.952 26.4653 15.2 25.4189 15.2H9.93325C6.84045 15.2 4.33325 17.7072 4.33325 20.8V28.2856C4.33325 29.332 5.08605 30.2848 6.12685 30.3896C6.65885 30.4432 7.14765 30.28 7.53325 29.9872V44.8H11.5333V32.8C11.5333 31.9168 12.2501 31.2 13.1333 31.2C14.0165 31.2 14.7333 31.9168 14.7333 32.8V44.8H18.7333Z" fill="#00513F"/>
</svg>
