<svg width="20" height="14" viewBox="0 0 20 14" fill="none" xmlns="http://www.w3.org/2000/svg">
<path d="M16 6C18.2091 6 20 7.7909 20 10C20 12.2091 18.2091 14 16 14H11V9.4142L11.2929 9.7071C11.6834 10.0976 12.3166 10.0976 12.7071 9.7071C13.0976 9.3166 13.0976 8.6834 12.7071 8.2929L10.7071 6.2929C10.5126 6.0984 10.2579 6.0008 10.0029 6H10H9.997C9.8625 6.0004 9.7343 6.0273 9.6172 6.0759C9.4993 6.1247 9.3888 6.197 9.2929 6.2929L7.29289 8.2929C6.90237 8.6834 6.90237 9.3166 7.29289 9.7071C7.6834 10.0976 8.3166 10.0976 8.7071 9.7071L9 9.4142V14H5C2.23858 14 0 11.7614 0 9C0 6.4673 1.88316 4.37436 4.32568 4.04508C5.13649 1.69118 7.37075 0 10 0C13.3137 0 16 2.68629 16 6Z" fill="#E7FF25"/>
</svg>
