<svg width="48" height="48" viewBox="0 0 48 48" fill="none" xmlns="http://www.w3.org/2000/svg">
<path d="M17.6 23.2C22.0182 23.2 25.6 19.6182 25.6 15.2C25.6 10.7817 22.0182 7.19995 17.6 7.19995C13.1817 7.19995 9.59998 10.7817 9.59998 15.2C9.59998 19.6182 13.1817 23.2 17.6 23.2Z" fill="#00513F"/>
<path d="M2.40002 43.9999V39.9999C2.40002 31.6183 9.21842 25.5999 17.6 25.5999C25.9816 25.5999 32.8 31.6183 32.8 39.9999V43.9999H2.40002Z" fill="#00513F"/>
<path d="M34.4 16C37.9346 16 40.8 13.1346 40.8 9.59995C40.8 6.06533 37.9346 3.19995 34.4 3.19995C30.8654 3.19995 28 6.06533 28 9.59995C28 13.1346 30.8654 16 34.4 16Z" fill="#00513F"/>
<path d="M34.4 18.3999C29.8376 18.3999 25.9192 20.6975 24.1736 24.3831C28.0488 25.8335 31.2136 28.5311 33.1408 31.9999H45.6V28.7999C45.6 22.6143 40.5856 18.3999 34.4 18.3999Z" fill="#00513F"/>
</svg>
